<svg version="1.1" id="Layer_1" xmlns="http://www.w3.org/2000/svg" xmlns:xlink="http://www.w3.org/1999/xlink" x="0px" y="0px"
	 width="100%" viewBox="0 0 1408 768" enable-background="new 0 0 1408 768" xml:space="preserve">
<path fill="#000000" opacity="1.000000" stroke="none" 
	d="
M923.000000,769.000000 
	C615.368530,769.000000 308.237122,769.000000 1.052839,769.000000 
	C1.052839,513.064575 1.052839,257.129181 1.052839,1.000000 
	C235.575134,1.000000 470.150330,1.000000 704.725525,1.000000 
	C939.365295,1.000000 1174.005005,1.000000 1408.822388,1.000000 
	C1408.822388,256.999908 1408.822388,512.999939 1408.822388,769.000000 
	C1247.128906,769.000000 1085.314453,769.000000 923.000000,769.000000 
M811.070251,433.053436 
	C811.070251,433.053436 811.066223,433.011017 811.524109,432.830261 
	C811.809143,432.626770 811.975464,432.351532 812.000000,431.993683 
	C812.000000,431.993683 812.006409,432.017578 812.648560,431.813568 
	C818.095520,425.883850 823.542542,419.954102 829.558655,413.818909 
	C830.033203,413.184814 830.507812,412.550751 831.451599,411.794067 
	C831.758789,411.604614 831.901550,411.329803 831.960876,410.973846 
	C831.960876,410.973846 831.963684,410.892853 832.605957,410.702362 
	C834.060303,408.814240 835.514648,406.926147 837.036011,405.042816 
	C837.036011,405.042816 837.039246,404.975769 837.765259,404.951111 
	C838.483765,404.871094 839.202209,404.791077 840.630798,404.864044 
	C841.109680,404.816559 841.588501,404.769073 842.497742,404.855194 
	C842.497742,404.855194 842.924744,404.711487 843.618774,404.871277 
	C844.089844,404.840698 844.560852,404.810120 845.493958,404.920074 
	C845.493958,404.920074 845.962158,404.802032 846.733276,404.941132 
	C858.676270,403.687469 862.508972,388.100586 856.247253,380.622101 
	C855.521118,379.754883 855.931458,377.558350 856.379272,376.158661 
	C857.608032,372.317261 859.137451,368.572052 860.547852,364.788757 
	C860.016785,364.409698 859.485657,364.030640 858.954529,363.651550 
	C855.567871,365.023773 850.764832,365.459106 849.102539,367.971985 
	C846.062195,372.568176 842.763489,375.429260 837.372314,376.018219 
	C836.628235,376.099487 835.604858,376.403351 835.265991,376.949005 
	C833.540649,379.727325 831.247559,378.715240 829.268127,377.757996 
	C824.304016,375.357330 819.465576,372.697052 814.910400,369.477417 
	C816.704041,366.388733 818.233765,363.094543 820.408020,360.302246 
	C821.421448,359.000824 823.661865,358.070648 825.384460,358.006866 
	C832.772949,357.733276 840.422363,359.050110 847.528259,357.596100 
	C871.684265,352.653229 887.309448,331.194641 888.764587,307.615936 
	C889.293457,299.045837 886.923035,290.900543 883.204834,283.486511 
	C880.330444,277.755219 877.687866,271.194519 870.576782,268.357941 
	C870.174805,268.916595 869.505981,269.475861 869.314453,270.167358 
	C865.888000,282.540833 862.619324,294.959412 859.036865,307.286987 
	C858.460815,309.269470 856.873047,311.917755 855.183350,312.449890 
	C848.030579,314.702728 840.563782,317.905823 833.410950,317.472717 
	C829.198120,317.217621 825.343018,310.814270 821.360046,307.140350 
	C820.015198,305.899780 818.832031,304.481903 817.469604,303.262939 
	C814.659424,300.748779 814.273804,297.645325 815.185242,294.247742 
	C817.175171,286.829895 819.256165,279.436462 821.242432,272.017639 
	C822.618652,266.877228 823.898865,261.711121 825.274353,256.352142 
	C822.082397,256.112427 819.117798,254.933731 817.657776,255.939377 
	C809.747070,261.388306 800.871216,266.245514 794.809265,273.406952 
	C780.514587,290.294128 779.047058,320.343567 794.342407,337.857147 
	C798.808350,342.970734 801.480530,348.025482 796.177856,354.123779 
	C796.095093,354.218964 796.216064,354.467926 796.158569,354.611816 
	C788.701294,373.269531 778.609497,390.037537 761.394165,401.837891 
	C756.908081,394.809662 752.421997,387.781433 748.331177,380.227448 
	C749.343140,379.376160 750.335571,378.500214 751.370483,377.677765 
	C756.813293,373.352386 762.456482,369.255035 767.658142,364.657715 
	C772.003845,360.816956 771.871399,358.728729 767.947205,354.670135 
	C763.230652,349.792114 758.538452,344.878326 753.590027,340.242218 
	C751.201416,338.004272 748.878540,337.118286 745.763245,340.496826 
	C741.660034,344.946838 736.892578,349.139435 731.657593,352.119843 
	C719.105774,359.265900 705.454285,359.829559 691.623657,356.520508 
	C681.010620,353.981232 671.893250,348.850861 664.882019,340.238403 
	C655.234680,328.387756 651.447449,314.744232 652.816467,299.742523 
	C654.359253,282.835938 662.294678,269.215790 676.725037,260.372162 
	C694.859436,249.258530 713.826172,249.154510 732.384888,259.635620 
	C737.482056,262.514313 741.819092,266.809631 746.282959,270.709045 
	C748.494568,272.640961 750.032837,273.483948 752.501831,271.002106 
	C758.231323,265.242737 764.255615,259.777771 770.071167,254.102051 
	C771.777222,252.437012 772.359009,250.452621 770.202698,248.547058 
	C765.074463,244.015182 759.949219,239.479965 754.829346,234.218307 
	C756.806641,230.661880 758.598572,226.984695 760.813782,223.583206 
	C762.998840,220.228027 765.230347,214.918198 768.118530,214.424194 
	C773.902771,213.434830 780.866211,210.597961 786.204956,217.491562 
	C789.132935,220.397247 793.075256,222.670898 791.757019,227.943420 
	C790.482971,233.039200 790.494751,237.659439 794.509705,242.168243 
	C799.278015,247.523087 804.164978,249.684906 811.044556,247.571106 
	C816.630615,245.854736 821.632507,238.993225 822.014771,233.223434 
	C822.154236,231.117676 822.791077,228.264969 824.259888,227.157410 
	C832.097778,221.247498 839.994446,215.311462 848.439087,210.352081 
	C853.001038,207.672913 858.350708,210.830673 859.059265,215.470657 
	C860.519836,225.034866 861.758057,234.632843 863.177429,244.203613 
	C863.873352,248.896286 864.342224,253.786865 869.630310,256.016266 
	C870.916321,256.558411 872.168823,257.179901 873.436768,257.764923 
	C873.898010,256.266724 874.920105,254.694122 874.732849,253.281906 
	C873.050110,240.595032 871.247559,227.921768 869.259277,215.279251 
	C868.736755,211.956573 868.937988,209.348511 871.413391,206.698410 
	C873.063110,204.932312 873.686951,202.207993 874.907043,199.301788 
	C874.848816,198.891907 874.790588,198.482025 874.883606,197.250977 
	C874.835266,196.142395 874.786926,195.033798 874.908630,193.246414 
	C874.626465,192.210236 874.344238,191.174042 873.950439,189.374557 
	C873.848938,188.874130 873.747437,188.373703 873.715149,187.496933 
	C873.572937,187.239410 873.356750,187.135406 873.090088,186.978928 
	C873.090088,186.978928 872.888000,186.932968 872.867493,186.480591 
	C872.690186,186.139542 872.433105,186.061874 871.479919,186.009354 
	C871.244568,185.649643 871.009216,185.289932 870.861267,184.449448 
	C870.685974,184.122040 870.413452,183.975922 870.041748,183.956436 
	C870.041748,183.956436 869.987610,183.964066 869.734497,183.321671 
	C867.828735,182.629166 865.922974,181.936646 863.127808,181.088028 
	C860.718140,181.138504 858.308533,181.188980 855.320374,181.082184 
	C854.928406,181.138138 854.536377,181.194092 853.438965,181.197433 
	C852.583557,181.430176 851.728210,181.662918 850.818970,181.506271 
	C850.663086,181.210617 850.439880,181.145737 849.526794,181.086563 
	C849.316772,181.018646 849.106812,180.950714 848.841309,180.456726 
	C848.679016,180.174194 848.436096,180.052856 847.909912,179.557098 
	C847.594116,179.369904 847.278320,179.182724 846.844421,178.530350 
	C846.645691,178.176682 846.369995,178.100220 845.499512,178.106430 
	C845.322754,178.053970 845.145996,178.001511 844.733154,177.317429 
	C840.570923,174.187851 836.524292,170.887543 832.217773,167.970993 
	C826.573669,164.148529 820.724487,160.628937 814.925720,156.120026 
	C814.870117,154.789108 814.902893,153.447617 814.745056,152.128937 
	C813.456116,141.359161 801.401917,134.073227 792.757263,139.322693 
	C788.633667,141.826706 785.109924,142.336502 780.514709,140.208725 
	C780.514709,140.208725 780.039246,140.320084 779.375854,140.132858 
	C778.804932,139.798538 778.234009,139.464203 777.588623,138.760223 
	C777.399109,138.530594 777.171814,138.483444 776.264160,138.271576 
	C775.781982,138.204788 775.299744,138.138000 774.536438,137.464005 
	C773.326904,137.098007 772.117432,136.732010 770.304077,136.214325 
	C769.890930,136.188522 769.477722,136.162720 768.779297,135.434921 
	C754.449097,131.294205 740.102478,127.208412 725.817505,122.917007 
	C724.564575,122.540596 723.710510,120.821854 722.681519,119.716965 
	C720.046875,116.888000 717.915710,113.092293 714.684265,111.419525 
	C707.735229,107.822311 699.111389,111.018120 695.074646,117.110443 
	C689.724548,125.184715 693.658691,131.866577 698.717773,137.153152 
	C700.248962,138.753204 701.861145,141.036911 701.978088,143.090530 
	C702.374939,150.058929 702.287231,157.071609 701.990479,164.050629 
	C701.919495,165.720245 700.724487,167.880478 699.360596,168.867889 
	C691.489624,174.566360 690.080322,183.607544 696.141907,191.367767 
	C700.753540,197.271683 713.610229,198.235992 718.789795,192.108063 
	C722.720215,187.458084 726.405090,187.499878 731.176514,189.318466 
	C732.056641,189.653961 733.092896,189.580154 734.748596,189.856873 
	C735.221802,189.894501 735.695007,189.932129 736.267944,190.359528 
	C736.267944,190.359528 736.566528,190.628662 736.566528,190.628662 
	C736.566528,190.628662 736.966553,190.588455 737.746643,190.828598 
	C741.575439,192.047928 745.333008,193.638275 749.251526,194.389801 
	C753.832886,195.268448 756.864685,196.853821 756.319580,202.218628 
	C756.232788,203.072937 757.386658,204.053299 757.965088,205.037628 
	C757.965088,205.037628 758.027222,205.033478 758.036743,205.851807 
	C758.048828,207.212631 758.060913,208.573471 757.928650,209.940155 
	C757.928650,209.940155 757.931702,210.084579 757.385742,210.276627 
	C757.258240,210.833984 757.130798,211.391357 756.362183,212.282242 
	C752.622559,217.944946 748.882935,223.607666 744.380493,229.136108 
	C725.080994,220.430954 705.082764,218.834824 684.477356,223.178650 
	C661.565002,228.008804 643.721619,240.385056 631.270081,260.036713 
	C620.242310,277.441223 616.546448,296.604248 619.180237,317.152649 
	C621.962524,338.859070 631.673035,356.957123 648.464844,370.404999 
	C671.986816,389.242798 699.147888,394.072327 728.436707,387.401978 
	C732.124512,386.562103 735.855286,385.910522 739.878723,385.848724 
	C741.332092,388.729706 742.783875,391.611481 744.239197,394.491486 
	C746.853271,399.664764 749.469482,404.836975 751.425049,410.122314 
	C750.605713,411.070099 749.786438,412.017914 749.000000,413.000000 
	C749.000000,413.000000 748.966858,412.965057 748.220764,413.035736 
	C743.325134,415.091553 738.572510,417.670746 733.494263,419.057892 
	C728.280212,420.482117 722.392761,424.180969 717.836914,417.152222 
	C717.086304,415.994232 714.665710,415.918701 712.307373,415.117676 
	C711.568176,415.032806 710.828918,414.947906 709.647583,414.378235 
	C708.829407,414.498383 708.011292,414.618530 706.438110,414.819275 
	C703.830933,415.546844 700.678711,415.581757 698.714844,417.126953 
	C691.781616,422.582184 690.511169,432.996216 696.964417,438.893951 
	C701.899292,443.404114 702.408569,448.168060 702.202637,453.868195 
	C702.046570,458.188385 702.573486,462.579895 701.962952,466.819641 
	C701.593872,469.383087 700.149902,472.254242 698.285278,474.047729 
	C693.802490,478.359406 691.253113,485.609009 693.191284,490.788910 
	C695.729492,497.572418 703.759155,502.111694 710.745239,500.712402 
	C718.320984,499.194977 724.360962,491.996582 724.801636,484.825928 
	C725.289185,484.603210 725.776733,484.380524 726.445801,484.327148 
	C726.445801,484.327148 726.703430,483.959930 727.500000,483.936127 
	C739.658569,478.580505 751.817078,473.224915 764.632019,467.604553 
	C768.351440,466.094299 771.385864,462.188354 776.256958,465.084900 
	C785.205933,470.406281 800.036560,464.070160 798.672119,450.470856 
	C798.275208,446.514526 799.199158,443.733887 802.055359,440.435516 
	C804.767395,438.276825 807.479492,436.118103 810.658081,433.889679 
	C810.953491,433.692108 811.077209,433.417145 811.070251,433.053436 
M971.791443,650.670410 
	C971.737122,635.123352 971.682800,619.576294 971.739014,603.182922 
	C971.421021,600.425537 970.871826,597.671692 970.829956,594.910156 
	C970.720947,587.711609 970.724670,580.506836 970.910645,573.310425 
	C970.989746,570.249023 969.799561,569.103394 966.848450,569.178955 
	C962.692871,569.285400 958.532776,569.225647 954.374634,569.222778 
	C947.899658,569.218262 947.246948,569.797180 947.232788,576.261353 
	C947.200378,591.063599 947.230347,605.865906 947.236938,620.668213 
	C947.240967,629.815857 947.255920,638.963440 947.250854,648.111084 
	C947.248657,652.093750 948.707764,654.231506 953.193481,653.887939 
	C957.658386,653.546021 962.188721,654.041687 966.649658,653.675232 
	C968.148438,653.552185 969.522400,651.909363 971.791443,650.670410 
M686.997559,439.001221 
	C686.997559,439.001221 686.971252,439.022430 686.949463,438.231018 
	C686.239990,433.563904 684.852844,428.873840 685.009949,424.236084 
	C685.169861,419.514008 683.476929,417.926605 679.163940,416.919647 
	C660.002686,412.446014 642.581604,404.232697 628.063843,390.780884 
	C611.720764,375.637726 599.933716,357.607727 593.859131,335.865265 
	C586.090088,308.057709 588.698486,281.211182 600.821655,255.365967 
	C607.547485,241.027237 617.615112,229.071198 629.598450,218.470612 
	C644.582458,205.215668 661.850525,197.177597 681.115234,193.057541 
	C685.373230,192.146912 685.819519,190.514603 685.343262,186.596298 
	C684.793640,182.073975 685.528809,177.395493 686.007629,172.169067 
	C686.664062,171.221939 687.136230,170.035828 688.005981,169.365555 
	C694.876404,164.070755 695.774170,156.850128 694.819824,148.969543 
	C694.700317,147.982864 694.977966,146.909637 694.698608,145.989822 
	C694.280090,144.611923 693.860657,142.966675 692.867004,142.076218 
	C687.879944,137.606812 685.266968,132.012817 684.212219,123.929932 
	C682.360596,125.655334 680.535095,126.535446 680.189941,127.814903 
	C678.333313,134.697784 676.993042,141.720627 675.109131,148.595001 
	C674.710510,150.049576 672.998657,151.717133 671.531311,152.207214 
	C665.010803,154.385056 658.294006,155.978088 651.784302,158.184189 
	C648.818726,159.189178 646.727844,158.518723 644.801636,156.483490 
	C640.965027,152.429688 637.018188,148.460617 633.449036,144.179581 
	C630.686829,140.866394 627.570923,139.823395 623.882080,141.843170 
	C615.933716,146.195175 607.936584,150.506393 600.309448,155.381760 
	C594.243713,159.259064 593.897705,161.648697 596.208130,168.720840 
	C597.670654,173.197418 598.755859,177.813782 600.471802,182.186340 
	C602.112915,186.368073 600.184937,188.852814 597.424988,191.492249 
	C593.348572,195.390518 589.256958,199.326584 585.663757,203.654953 
	C583.687805,206.035110 582.062622,206.417145 579.303650,205.475998 
	C573.458130,203.482025 567.554626,201.593063 561.557434,200.148239 
	C559.706970,199.702423 556.755859,200.122833 555.536621,201.358353 
	C547.523804,209.477753 543.301025,220.008362 538.343384,230.022247 
	C537.723755,231.273926 538.260864,233.887558 539.245544,234.998291 
	C542.363159,238.515274 545.835754,241.745605 549.374878,244.854858 
	C556.163452,250.818832 557.117737,253.850937 554.137085,262.639099 
	C553.091187,265.722748 551.071655,268.574280 550.529785,271.710266 
	C549.403320,278.230316 546.914062,281.188202 540.736145,281.062408 
	C534.475525,280.934967 528.990662,283.035706 523.241272,286.097260 
	C522.954285,286.327972 522.901978,286.603516 523.114441,287.623779 
	C523.045837,288.083160 522.977234,288.542542 522.277954,289.495728 
	C521.812622,292.589050 521.767334,295.820709 520.802490,298.749451 
	C518.033936,307.153168 521.897095,314.969788 522.559021,323.054840 
	C522.610413,323.682587 523.581909,324.235016 524.768677,325.204987 
	C531.424316,326.793396 538.050293,328.524048 544.746399,329.917908 
	C548.898743,330.782257 550.831299,333.113129 551.064392,337.218781 
	C551.126892,338.320435 551.574585,339.408386 551.902039,340.485413 
	C553.289001,345.047180 554.865234,349.561279 555.999268,354.184265 
	C556.355530,355.636749 556.098145,357.887695 555.169067,358.891693 
	C551.740417,362.597107 547.749756,365.780121 544.290161,369.460175 
	C541.809326,372.099121 538.469543,375.020874 538.016663,378.175873 
	C537.543884,381.469604 539.712952,385.372711 541.373291,388.685608 
	C543.562927,393.054565 546.326904,397.142914 548.942017,401.290009 
	C554.896240,410.732178 552.885742,413.066040 567.390076,409.362762 
	C571.820007,408.231659 576.073853,406.410034 580.504639,405.283081 
	C581.797424,404.954224 583.829529,405.487122 584.820923,406.393066 
	C588.078369,409.369720 590.823120,412.912018 594.110596,415.850128 
	C601.775757,422.700714 602.485657,425.581329 598.155640,435.214142 
	C598.088867,435.362671 597.997253,435.500183 597.932434,435.649414 
	C593.325134,446.249359 593.871948,451.069763 602.147766,457.066254 
	C608.522705,461.685364 615.803772,465.041992 622.605713,469.088104 
	C626.727905,471.540161 629.944519,470.322876 632.997559,467.183472 
	C637.012146,463.055298 640.985901,458.866852 645.274475,455.037231 
	C646.677673,453.784149 649.219788,452.657227 650.878906,453.040527 
	C657.755371,454.629303 664.573853,456.590332 671.225037,458.947021 
	C672.881653,459.534027 674.454956,461.931122 674.994934,463.804993 
	C676.754272,469.910217 677.829224,476.213013 679.598877,482.314667 
	C680.067566,483.930634 682.087463,485.096710 683.395142,486.469360 
	C684.766541,478.775848 688.161438,473.514496 692.494141,468.620392 
	C693.614868,467.354401 694.582886,465.525879 694.714661,463.883026 
	C695.416626,455.128448 695.866455,446.340179 687.821350,439.596161 
	C687.540405,439.406586 687.259460,439.217041 686.997559,439.001221 
M654.640930,651.787231 
	C658.733582,653.901001 663.187622,654.080383 667.641296,654.129639 
	C675.657654,654.218384 684.175171,655.973938 691.577087,653.859985 
	C703.321594,650.505737 714.494141,644.890625 722.464294,634.683777 
	C728.205750,627.331116 733.649475,619.354187 734.491577,610.245728 
	C735.908630,594.918213 736.361267,579.126099 724.927063,566.442444 
	C720.028137,561.008240 715.136414,555.205994 709.156677,551.183777 
	C697.141418,543.101990 683.215820,540.829590 669.000549,542.360962 
	C659.273987,543.408752 649.843506,546.335999 641.666077,552.128479 
	C630.008545,560.385986 621.919739,571.154907 618.639954,585.281738 
	C615.557800,598.557434 616.471130,611.494690 622.685547,623.650818 
	C629.442749,636.868652 639.650146,646.563232 654.640930,651.787231 
M518.153931,631.499878 
	C518.169373,636.829346 518.420410,642.171753 518.129395,647.484436 
	C517.873352,652.157654 519.341797,654.354553 524.318115,653.828491 
	C527.281372,653.515137 530.331421,653.556091 533.299500,653.858765 
	C538.461121,654.385132 541.948730,653.262268 540.950684,646.480896 
	C544.483704,648.174377 547.458435,649.539551 550.379822,651.010803 
	C564.796326,658.271118 585.040405,654.350830 596.049500,643.284851 
	C608.570862,630.698730 611.514343,607.829895 603.219482,590.092529 
	C594.766602,572.017334 577.652161,565.825562 559.134216,568.713989 
	C553.881165,569.533325 548.769653,571.260742 543.003052,572.721130 
	C542.618835,569.006836 542.075500,565.753113 541.988953,562.487183 
	C541.825806,556.329102 541.887817,550.163818 541.929932,544.002075 
	C541.956848,540.068787 540.080994,538.165588 536.165894,538.189026 
	C532.501953,538.210938 528.837158,538.155273 525.173889,538.210144 
	C518.873962,538.304504 518.091064,539.101685 518.092773,545.560242 
	C518.100281,573.873474 518.132690,602.186768 518.153931,631.499878 
M332.049683,568.303406 
	C334.496796,569.999634 336.820618,571.930847 339.437286,573.303894 
	C341.008148,574.128174 343.848328,575.023804 344.723663,574.269409 
	C349.544281,570.114746 353.935059,565.461365 358.899384,560.558228 
	C353.572449,556.587158 349.498932,552.781494 344.766998,550.167908 
	C330.866150,542.489929 315.841278,540.466003 300.311676,543.346863 
	C284.273376,546.322205 271.123810,554.631958 262.520203,568.354797 
	C254.963226,580.408203 252.611298,594.014282 255.040604,608.449585 
	C257.477173,622.928040 264.136353,634.499451 275.761688,643.384521 
	C288.487274,653.110596 303.099548,655.656250 318.581177,654.796326 
	C333.258514,653.981140 345.804321,648.241760 356.346436,637.984253 
	C358.555237,635.835083 359.343475,634.198975 356.399200,632.033447 
	C352.942261,629.490906 349.387146,626.963806 346.428558,623.895813 
	C343.650696,621.015198 341.853699,620.471130 338.769501,623.608826 
	C331.128998,631.381775 321.192719,634.970032 310.744629,633.881226 
	C290.132599,631.733276 277.939392,616.561462 279.005127,595.776062 
	C279.579407,584.575378 284.106323,575.136902 293.875488,569.105713 
	C306.032074,561.600647 318.676697,561.770874 332.049683,568.303406 
M1046.406128,652.670044 
	C1061.931763,647.160156 1071.332764,636.501587 1074.908447,620.250916 
	C1076.809570,611.610718 1077.010498,602.338989 1073.497314,595.289368 
	C1063.981079,576.193542 1049.121582,565.107971 1023.847351,568.268982 
	C1006.934875,570.384094 994.367615,578.683838 987.930481,595.382568 
	C980.962219,613.458923 986.589111,635.212891 1003.074646,646.873840 
	C1011.131592,652.572815 1020.057739,654.881226 1029.640503,654.700806 
	C1034.989502,654.600220 1040.318970,653.469788 1046.406128,652.670044 
M475.131927,585.509277 
	C474.752472,596.270569 474.732178,607.060547 473.877502,617.783936 
	C473.219452,626.040649 468.620880,631.152527 461.532379,632.679199 
	C458.982117,633.228394 456.242340,632.878296 453.590637,632.979675 
	C445.449066,633.290955 440.072815,629.157227 438.987976,621.289062 
	C438.332123,616.532288 437.999878,611.701660 437.935089,606.898621 
	C437.795776,596.570068 437.778412,586.234680 438.012421,575.908875 
	C438.107330,571.719849 436.585358,569.634033 432.408905,569.557556 
	C428.085205,569.478455 423.758545,569.291809 419.438171,569.384399 
	C415.886963,569.460510 414.003082,571.316040 414.087341,575.079895 
	C414.477570,592.513977 414.245575,609.986328 415.395874,627.368286 
	C415.932312,635.474915 419.926178,642.985107 427.127014,647.877686 
	C442.199951,658.119019 462.046936,656.360657 475.810242,645.090271 
	C475.926178,646.035339 476.185699,646.822876 476.087128,647.562805 
	C475.443085,652.397583 477.543823,654.257446 482.326172,653.893860 
	C485.971741,653.616638 489.655182,653.733154 493.318298,653.819946 
	C497.110077,653.909729 498.804169,652.166809 498.759766,648.395325 
	C498.696960,643.064453 498.801178,637.731812 498.804260,632.399963 
	C498.815125,613.738159 498.915100,595.075012 498.677673,576.416260 
	C498.650269,574.263855 497.006653,570.531921 495.617828,570.282104 
	C490.432098,569.349487 485.040619,569.408386 479.726013,569.402771 
	C476.609924,569.399536 474.875916,571.114868 475.042969,574.519531 
	C475.206116,577.844788 475.108978,581.182800 475.131927,585.509277 
M1116.758911,600.133545 
	C1115.739136,600.112122 1114.486328,600.462036 1113.744873,599.996826 
	C1111.824585,598.792297 1109.434937,597.555176 1108.565308,595.704773 
	C1107.874146,594.234009 1108.610596,590.510681 1109.651001,590.086365 
	C1113.788330,588.398804 1118.392578,586.408752 1122.639771,586.759338 
	C1129.987549,587.365784 1137.198486,589.630798 1145.357422,591.392395 
	C1146.850220,588.923889 1148.756836,585.768677 1150.665771,582.614990 
	C1154.280640,576.643066 1152.739380,572.687561 1145.787231,571.205688 
	C1133.138428,568.509338 1120.574829,566.825073 1107.486328,569.686340 
	C1099.367432,571.461182 1093.156738,574.867249 1088.286255,581.337585 
	C1083.703979,587.425232 1082.495483,599.454285 1086.086304,605.283569 
	C1090.951660,613.182129 1098.238281,617.212219 1107.217651,618.901123 
	C1114.378906,620.248169 1121.531738,621.843018 1128.476807,624.006653 
	C1130.409180,624.608643 1133.227539,628.754761 1132.826904,629.335938 
	C1131.213257,631.676758 1128.658081,634.583313 1126.161621,634.884338 
	C1116.783203,636.015198 1107.457886,636.474243 1098.523804,631.404419 
	C1092.258301,627.848938 1091.227539,628.696350 1087.013062,634.526062 
	C1085.958374,635.985046 1085.003418,637.522766 1084.088257,639.074890 
	C1081.267944,643.858765 1081.498169,645.856079 1086.410034,647.815125 
	C1093.912476,650.807434 1101.166260,655.133423 1109.814941,653.942444 
	C1110.953247,653.785706 1112.146118,653.908203 1113.302368,654.019714 
	C1121.930542,654.852051 1130.387451,655.048645 1138.700562,651.530151 
	C1147.775269,647.689270 1154.352417,642.440735 1156.066162,631.869385 
	C1157.416382,623.540222 1154.289673,614.708130 1147.494995,609.910461 
	C1138.351929,603.454468 1127.247070,604.071838 1116.758911,600.133545 
M916.968079,625.091248 
	C914.285095,627.367065 911.906555,630.252686 908.849426,631.779236 
	C903.978760,634.211487 898.855225,636.323730 893.015442,634.204956 
	C880.487671,629.659790 875.564758,620.058960 876.959045,607.857849 
	C877.818726,600.335388 880.130005,592.902527 888.409790,589.840942 
	C890.467529,589.079956 892.843262,589.151611 895.080200,588.908020 
	C900.736816,588.291992 906.578491,587.936646 911.218262,591.742432 
	C918.885071,598.031067 918.729065,598.253540 927.232056,593.083496 
	C929.846313,591.493958 932.380371,589.772400 934.873596,588.161377 
	C928.318726,570.961853 907.957092,564.245056 881.528564,570.211060 
	C865.319153,573.870239 850.185486,596.506042 852.376404,614.487000 
	C853.790222,626.089600 858.493225,636.050110 867.556946,644.112732 
	C879.906433,655.098206 894.300659,655.073486 909.406189,654.152649 
	C917.857300,653.637512 933.792114,641.116150 935.441956,632.035950 
	C932.555786,630.731445 929.066284,629.995728 926.808838,627.920044 
	C924.006714,625.343567 921.295349,624.362549 916.968079,625.091248 
M778.899841,597.637878 
	C778.754395,590.034058 778.898071,589.963928 786.062012,589.798035 
	C789.688538,589.714111 793.314514,589.331238 796.922180,588.920715 
	C797.684265,588.833923 798.957886,588.076111 798.991760,587.561646 
	C799.303772,582.808960 799.535400,578.038025 799.406006,573.282898 
	C799.385620,572.534119 797.494873,571.326355 796.375427,571.206909 
	C791.826660,570.721436 787.165710,569.967712 782.696472,570.522949 
	C779.746887,570.889343 779.219727,570.123657 778.886597,567.807983 
	C777.700073,559.560730 781.184143,555.546387 789.555176,555.897522 
	C791.761230,555.990051 793.915344,557.019226 796.132690,557.270447 
	C797.226257,557.394287 799.182922,557.016724 799.427612,556.367859 
	C801.083679,551.975891 802.608826,547.500488 803.632141,542.930237 
	C803.860840,541.909058 802.182312,539.707764 800.941345,539.253723 
	C797.405579,537.959961 793.689819,536.952942 789.961060,536.426697 
	C772.179749,533.916992 756.700439,544.049316 754.989136,562.724426 
	C754.413513,569.006409 755.595825,571.566040 746.215515,571.142883 
	C743.241516,571.008667 740.964905,572.216553 741.342285,575.310059 
	C741.932007,580.144043 738.769653,585.705566 743.788452,589.692871 
	C744.403687,590.181763 745.729309,589.782593 746.725769,589.784302 
	C749.011658,589.788208 751.297546,589.785522 754.173279,589.785522 
	C754.173279,592.126587 754.146240,593.915710 754.177551,595.703796 
	C754.489319,613.492920 754.776855,631.282593 755.177490,649.069763 
	C755.221741,651.032166 755.929260,652.979553 756.114868,653.886780 
	C762.619995,653.886780 768.237793,653.525818 773.776672,654.030518 
	C776.799316,654.305908 777.749634,653.323730 777.793823,650.811890 
	C777.896057,645.003662 777.747314,639.190430 777.883728,633.383545 
	C778.156311,621.784668 778.552002,610.188660 778.899841,597.637878 
M371.215851,643.363159 
	C371.222656,644.362427 371.211548,645.362122 371.239166,646.360840 
	C371.423279,653.017517 372.232544,653.825867 378.782318,653.836121 
	C382.612854,653.842163 386.448730,653.684021 390.272461,653.839111 
	C393.779358,653.981567 395.074188,652.417542 394.894867,649.052307 
	C394.744415,646.228760 394.850098,643.391235 394.850647,640.559937 
	C394.856537,608.582642 394.798370,576.605042 394.942993,544.628357 
	C394.964294,539.916016 393.413910,537.843323 388.593353,538.147644 
	C384.778046,538.388489 380.931885,538.294128 377.105560,538.165649 
	C372.991974,538.027527 371.114075,539.509949 371.132019,543.976440 
	C371.263763,576.782715 371.209625,609.589844 371.215851,643.363159 
M815.104004,622.503113 
	C815.135071,630.819641 815.094116,639.137329 815.222656,647.452393 
	C815.306946,652.903442 816.588806,653.997681 821.674133,653.852112 
	C825.170898,653.752014 828.673279,653.846802 832.173157,653.855713 
	C839.375488,653.874084 839.790527,653.368713 839.788452,646.273438 
	C839.782715,627.121765 839.880798,607.970154 839.896423,588.818481 
	C839.900635,583.658997 839.990479,578.478638 839.534668,573.352905 
	C839.404663,571.890564 837.555664,569.458191 836.390930,569.395203 
	C829.456665,569.020386 822.491882,569.209900 815.095642,569.209900 
	C815.095642,586.945557 815.095642,604.223816 815.104004,622.503113 
M838.371521,535.163879 
	C837.387451,534.588257 836.405029,534.009888 835.419128,533.437439 
	C830.674255,530.682678 825.824463,530.024109 820.880798,532.864014 
	C815.267151,536.088806 812.188904,540.619751 813.087341,547.444336 
	C813.752869,552.499695 818.407288,557.459229 824.092224,558.640381 
	C830.273438,559.924561 836.622192,557.189575 839.449280,552.840759 
	C843.350403,546.839905 841.809204,541.345276 838.371521,535.163879 
M960.201294,531.321472 
	C950.454590,531.731689 944.542419,537.602356 945.086731,546.329895 
	C945.555237,553.842041 953.168518,559.540222 961.654907,558.730347 
	C966.761414,558.243042 972.626709,552.848450 973.719543,547.633911 
	C975.004150,541.504028 972.751526,536.722290 966.959656,533.735046 
	C965.078552,532.764893 962.985779,532.205139 960.201294,531.321472 
z"/>
<path fill="#035DE1" opacity="1.000000" stroke="none" 
	d="
M687.751465,440.131622 
	C695.866455,446.340179 695.416626,455.128448 694.714661,463.883026 
	C694.582886,465.525879 693.614868,467.354401 692.494141,468.620392 
	C688.161438,473.514496 684.766541,478.775848 683.395142,486.469360 
	C682.087463,485.096710 680.067566,483.930634 679.598877,482.314667 
	C677.829224,476.213013 676.754272,469.910217 674.994934,463.804993 
	C674.454956,461.931122 672.881653,459.534027 671.225037,458.947021 
	C664.573853,456.590332 657.755371,454.629303 650.878906,453.040527 
	C649.219788,452.657227 646.677673,453.784149 645.274475,455.037231 
	C640.985901,458.866852 637.012146,463.055298 632.997559,467.183472 
	C629.944519,470.322876 626.727905,471.540161 622.605713,469.088104 
	C615.803772,465.041992 608.522705,461.685364 602.147766,457.066254 
	C593.871948,451.069763 593.325134,446.249359 597.932434,435.649414 
	C597.997253,435.500183 598.088867,435.362671 598.155640,435.214142 
	C602.485657,425.581329 601.775757,422.700714 594.110596,415.850128 
	C590.823120,412.912018 588.078369,409.369720 584.820923,406.393066 
	C583.829529,405.487122 581.797424,404.954224 580.504639,405.283081 
	C576.073853,406.410034 571.820007,408.231659 567.390076,409.362762 
	C552.885742,413.066040 554.896240,410.732178 548.942017,401.290009 
	C546.326904,397.142914 543.562927,393.054565 541.373291,388.685608 
	C539.712952,385.372711 537.543884,381.469604 538.016663,378.175873 
	C538.469543,375.020874 541.809326,372.099121 544.290161,369.460175 
	C547.749756,365.780121 551.740417,362.597107 555.169067,358.891693 
	C556.098145,357.887695 556.355530,355.636749 555.999268,354.184265 
	C554.865234,349.561279 553.289001,345.047180 551.902039,340.485413 
	C551.574585,339.408386 551.126892,338.320435 551.064392,337.218781 
	C550.831299,333.113129 548.898743,330.782257 544.746399,329.917908 
	C538.050293,328.524048 531.424316,326.793396 524.376221,324.568176 
	C523.638184,315.196045 523.267883,306.461670 522.961365,297.725006 
	C522.859436,294.820251 522.921509,291.909790 522.908569,289.001923 
	C522.977234,288.542542 523.045837,288.083160 523.217407,287.126282 
	C523.467529,286.421936 523.586670,286.200012 523.677673,285.962952 
	C528.990662,283.035706 534.475525,280.934967 540.736145,281.062408 
	C546.914062,281.188202 549.403320,278.230316 550.529785,271.710266 
	C551.071655,268.574280 553.091187,265.722748 554.137085,262.639099 
	C557.117737,253.850937 556.163452,250.818832 549.374878,244.854858 
	C545.835754,241.745605 542.363159,238.515274 539.245544,234.998291 
	C538.260864,233.887558 537.723755,231.273926 538.343384,230.022247 
	C543.301025,220.008362 547.523804,209.477753 555.536621,201.358353 
	C556.755859,200.122833 559.706970,199.702423 561.557434,200.148239 
	C567.554626,201.593063 573.458130,203.482025 579.303650,205.475998 
	C582.062622,206.417145 583.687805,206.035110 585.663757,203.654953 
	C589.256958,199.326584 593.348572,195.390518 597.424988,191.492249 
	C600.184937,188.852814 602.112915,186.368073 600.471802,182.186340 
	C598.755859,177.813782 597.670654,173.197418 596.208130,168.720840 
	C593.897705,161.648697 594.243713,159.259064 600.309448,155.381760 
	C607.936584,150.506393 615.933716,146.195175 623.882080,141.843170 
	C627.570923,139.823395 630.686829,140.866394 633.449036,144.179581 
	C637.018188,148.460617 640.965027,152.429688 644.801636,156.483490 
	C646.727844,158.518723 648.818726,159.189178 651.784302,158.184189 
	C658.294006,155.978088 665.010803,154.385056 671.531311,152.207214 
	C672.998657,151.717133 674.710510,150.049576 675.109131,148.595001 
	C676.993042,141.720627 678.333313,134.697784 680.189941,127.814903 
	C680.535095,126.535446 682.360596,125.655334 684.212219,123.929932 
	C685.266968,132.012817 687.879944,137.606812 692.867004,142.076218 
	C693.860657,142.966675 694.280090,144.611923 694.698608,145.989822 
	C694.977966,146.909637 694.700317,147.982864 694.819824,148.969543 
	C695.774170,156.850128 694.876404,164.070755 688.005981,169.365555 
	C687.136230,170.035828 686.664062,171.221939 685.441284,172.471146 
	C680.284607,173.546494 675.571350,173.890503 671.124207,175.164017 
	C645.858459,182.399307 623.916626,194.720337 605.621399,214.279099 
	C592.247375,228.576859 582.795898,244.838394 576.839172,262.829559 
	C567.852661,289.971161 567.787659,317.651520 575.982422,345.375366 
	C584.352600,373.692932 601.356506,395.905548 624.251770,413.437775 
	C642.593628,427.483124 664.034973,435.461761 686.971252,439.022430 
	C686.971252,439.022430 686.997559,439.001221 687.045410,439.241455 
	C687.242188,439.769684 687.461609,439.986328 687.751465,440.131622 
z"/>
<path fill="#032867" opacity="1.000000" stroke="none" 
	d="
M739.566101,385.171692 
	C735.855286,385.910522 732.124512,386.562103 728.436707,387.401978 
	C699.147888,394.072327 671.986816,389.242798 648.464844,370.404999 
	C631.673035,356.957123 621.962524,338.859070 619.180237,317.152649 
	C616.546448,296.604248 620.242310,277.441223 631.270081,260.036713 
	C643.721619,240.385056 661.565002,228.008804 684.477356,223.178650 
	C705.082764,218.834824 725.080994,220.430954 745.027771,229.380676 
	C748.724304,231.398849 751.773499,233.172470 754.822754,234.946091 
	C759.949219,239.479965 765.074463,244.015182 770.202698,248.547058 
	C772.359009,250.452621 771.777222,252.437012 770.071167,254.102051 
	C764.255615,259.777771 758.231323,265.242737 752.501831,271.002106 
	C750.032837,273.483948 748.494568,272.640961 746.282959,270.709045 
	C741.819092,266.809631 737.482056,262.514313 732.384888,259.635620 
	C713.826172,249.154510 694.859436,249.258530 676.725037,260.372162 
	C662.294678,269.215790 654.359253,282.835938 652.816467,299.742523 
	C651.447449,314.744232 655.234680,328.387756 664.882019,340.238403 
	C671.893250,348.850861 681.010620,353.981232 691.623657,356.520508 
	C705.454285,359.829559 719.105774,359.265900 731.657593,352.119843 
	C736.892578,349.139435 741.660034,344.946838 745.763245,340.496826 
	C748.878540,337.118286 751.201416,338.004272 753.590027,340.242218 
	C758.538452,344.878326 763.230652,349.792114 767.947205,354.670135 
	C771.871399,358.728729 772.003845,360.816956 767.658142,364.657715 
	C762.456482,369.255035 756.813293,373.352386 751.370483,377.677765 
	C750.335571,378.500214 749.343140,379.376160 747.752197,380.546265 
	C744.637512,382.300629 742.101807,383.736145 739.566101,385.171692 
z"/>
<path fill="#035CE0" opacity="1.000000" stroke="none" 
	d="
M762.028198,402.144440 
	C778.609497,390.037537 788.701294,373.269531 796.158569,354.611816 
	C796.216064,354.467926 796.095093,354.218964 796.177856,354.123779 
	C801.480530,348.025482 798.808350,342.970734 794.342407,337.857147 
	C779.047058,320.343567 780.514587,290.294128 794.809265,273.406952 
	C800.871216,266.245514 809.747070,261.388306 817.657776,255.939377 
	C819.117798,254.933731 822.082397,256.112427 825.274353,256.352142 
	C823.898865,261.711121 822.618652,266.877228 821.242432,272.017639 
	C819.256165,279.436462 817.175171,286.829895 815.185242,294.247742 
	C814.273804,297.645325 814.659424,300.748779 817.469604,303.262939 
	C818.832031,304.481903 820.015198,305.899780 821.360046,307.140350 
	C825.343018,310.814270 829.198120,317.217621 833.410950,317.472717 
	C840.563782,317.905823 848.030579,314.702728 855.183350,312.449890 
	C856.873047,311.917755 858.460815,309.269470 859.036865,307.286987 
	C862.619324,294.959412 865.888000,282.540833 869.314453,270.167358 
	C869.505981,269.475861 870.174805,268.916595 870.576782,268.357941 
	C877.687866,271.194519 880.330444,277.755219 883.204834,283.486511 
	C886.923035,290.900543 889.293457,299.045837 888.764587,307.615936 
	C887.309448,331.194641 871.684265,352.653229 847.528259,357.596100 
	C840.422363,359.050110 832.772949,357.733276 825.384460,358.006866 
	C823.661865,358.070648 821.421448,359.000824 820.408020,360.302246 
	C818.233765,363.094543 816.704041,366.388733 814.574341,370.057129 
	C812.838562,372.091858 811.438843,373.546875 809.837708,375.182373 
	C809.437012,375.663849 809.237732,375.964874 809.012329,376.454529 
	C808.986206,376.643188 808.838501,376.994263 808.521240,377.078735 
	C802.460388,383.411438 796.716736,389.659668 790.892700,396.163239 
	C790.521118,396.608032 790.229858,396.797485 789.581909,397.010864 
	C786.150085,399.674561 783.075012,402.314331 779.905151,405.201782 
	C779.515808,405.629456 779.221252,405.809387 778.558960,406.011230 
	C773.799133,409.041779 769.406921,412.050415 764.823425,415.324829 
	C763.087952,416.384216 761.543701,417.177826 759.731934,417.818115 
	C751.373474,420.859741 743.275757,424.037781 735.207642,427.289307 
	C734.687317,427.498993 734.395569,428.276001 733.759155,428.864929 
	C733.355957,428.965271 733.191040,428.989868 732.760620,429.045410 
	C732.011536,429.289520 731.528076,429.502655 730.690552,429.798462 
	C729.853271,429.919617 729.370117,429.958160 728.530884,429.985168 
	C727.462463,429.966339 726.750000,429.959076 725.965088,429.609924 
	C725.938965,427.181427 725.985413,425.094849 726.423950,422.997742 
	C731.926453,421.363831 737.154175,420.026154 742.099121,417.998993 
	C744.647949,416.954102 746.693787,414.682434 748.966858,412.965088 
	C748.966858,412.965057 749.000000,413.000000 749.336243,412.969360 
	C750.799072,411.975708 751.925659,411.012695 753.371094,409.934723 
	C756.469360,407.261292 759.248779,404.702850 762.028198,402.144440 
z"/>
<path fill="#033179" opacity="1.000000" stroke="none" 
	d="
M686.960327,438.626709 
	C664.034973,435.461761 642.593628,427.483124 624.251770,413.437775 
	C601.356506,395.905548 584.352600,373.692932 575.982422,345.375366 
	C567.787659,317.651520 567.852661,289.971161 576.839172,262.829559 
	C582.795898,244.838394 592.247375,228.576859 605.621399,214.279099 
	C623.916626,194.720337 645.858459,182.399307 671.124207,175.164017 
	C675.571350,173.890503 680.284607,173.546494 685.290527,172.779022 
	C685.528809,177.395493 684.793640,182.073975 685.343262,186.596298 
	C685.819519,190.514603 685.373230,192.146912 681.115234,193.057541 
	C661.850525,197.177597 644.582458,205.215668 629.598450,218.470612 
	C617.615112,229.071198 607.547485,241.027237 600.821655,255.365967 
	C588.698486,281.211182 586.090088,308.057709 593.859131,335.865265 
	C599.933716,357.607727 611.720764,375.637726 628.063843,390.780884 
	C642.581604,404.232697 660.002686,412.446014 679.163940,416.919647 
	C683.476929,417.926605 685.169861,419.514008 685.009949,424.236084 
	C684.852844,428.873840 686.239990,433.563904 686.960327,438.626709 
z"/>
<path fill="#045ADD" opacity="1.000000" stroke="none" 
	d="
M654.271118,651.677307 
	C639.650146,646.563232 629.442749,636.868652 622.685547,623.650818 
	C616.471130,611.494690 615.557800,598.557434 618.639954,585.281738 
	C621.919739,571.154907 630.008545,560.385986 641.666077,552.128479 
	C649.843506,546.335999 659.273987,543.408752 669.000549,542.360962 
	C683.215820,540.829590 697.141418,543.101990 709.156677,551.183777 
	C715.136414,555.205994 720.028137,561.008240 724.927063,566.442444 
	C736.361267,579.126099 735.908630,594.918213 734.491577,610.245728 
	C733.649475,619.354187 728.205750,627.331116 722.464294,634.683777 
	C714.494141,644.890625 703.321594,650.505737 691.577087,653.859985 
	C684.175171,655.973938 675.657654,654.218384 667.641296,654.129639 
	C663.187622,654.080383 658.733582,653.901001 654.271118,651.677307 
M645.643372,615.572754 
	C649.038818,622.444519 654.047729,627.521362 661.307190,630.405579 
	C667.585938,632.900208 673.772217,634.069702 680.687561,633.254089 
	C689.269714,632.241882 696.393127,628.905212 701.709290,622.437134 
	C712.313110,609.535522 713.010681,595.064819 705.780701,580.594177 
	C702.075562,573.178528 695.851868,566.850464 687.338867,565.100525 
	C676.706177,562.914856 665.614258,561.657166 656.526672,569.882507 
	C652.344543,573.667786 647.398315,577.619995 645.361023,582.554443 
	C641.051147,592.993347 640.571777,604.119324 645.643372,615.572754 
z"/>
<path fill="#052762" opacity="1.000000" stroke="none" 
	d="
M518.155029,630.999939 
	C518.132690,602.186768 518.100281,573.873474 518.092773,545.560242 
	C518.091064,539.101685 518.873962,538.304504 525.173889,538.210144 
	C528.837158,538.155273 532.501953,538.210938 536.165894,538.189026 
	C540.080994,538.165588 541.956848,540.068787 541.929932,544.002075 
	C541.887817,550.163818 541.825806,556.329102 541.988953,562.487183 
	C542.075500,565.753113 542.618835,569.006836 543.003052,572.721130 
	C548.769653,571.260742 553.881165,569.533325 559.134216,568.713989 
	C577.652161,565.825562 594.766602,572.017334 603.219482,590.092529 
	C611.514343,607.829895 608.570862,630.698730 596.049500,643.284851 
	C585.040405,654.350830 564.796326,658.271118 550.379822,651.010803 
	C547.458435,649.539551 544.483704,648.174377 540.950684,646.480896 
	C541.948730,653.262268 538.461121,654.385132 533.299500,653.858765 
	C530.331421,653.556091 527.281372,653.515137 524.318115,653.828491 
	C519.341797,654.354553 517.873352,652.157654 518.129395,647.484436 
	C518.420410,642.171753 518.169373,636.829346 518.155029,630.999939 
M583.099121,605.655212 
	C582.812683,604.705322 582.469177,603.768555 582.248535,602.803650 
	C579.343079,590.098572 563.206726,583.747986 551.741150,590.308655 
	C538.181152,598.067688 539.574341,619.540161 546.914062,627.639832 
	C553.938354,635.391479 565.076660,636.257019 573.705261,631.644531 
	C581.542297,627.455078 585.706238,616.056335 583.099121,605.655212 
z"/>
<path fill="#052662" opacity="1.000000" stroke="none" 
	d="
M331.713745,568.136597 
	C318.676697,561.770874 306.032074,561.600647 293.875488,569.105713 
	C284.106323,575.136902 279.579407,584.575378 279.005127,595.776062 
	C277.939392,616.561462 290.132599,631.733276 310.744629,633.881226 
	C321.192719,634.970032 331.128998,631.381775 338.769501,623.608826 
	C341.853699,620.471130 343.650696,621.015198 346.428558,623.895813 
	C349.387146,626.963806 352.942261,629.490906 356.399200,632.033447 
	C359.343475,634.198975 358.555237,635.835083 356.346436,637.984253 
	C345.804321,648.241760 333.258514,653.981140 318.581177,654.796326 
	C303.099548,655.656250 288.487274,653.110596 275.761688,643.384521 
	C264.136353,634.499451 257.477173,622.928040 255.040604,608.449585 
	C252.611298,594.014282 254.963226,580.408203 262.520203,568.354797 
	C271.123810,554.631958 284.273376,546.322205 300.311676,543.346863 
	C315.841278,540.466003 330.866150,542.489929 344.766998,550.167908 
	C349.498932,552.781494 353.572449,556.587158 358.899384,560.558228 
	C353.935059,565.461365 349.544281,570.114746 344.723663,574.269409 
	C343.848328,575.023804 341.008148,574.128174 339.437286,573.303894 
	C336.820618,571.930847 334.496796,569.999634 331.713745,568.136597 
z"/>
<path fill="#055BDE" opacity="1.000000" stroke="none" 
	d="
M1046.031738,652.736694 
	C1040.318970,653.469788 1034.989502,654.600220 1029.640503,654.700806 
	C1020.057739,654.881226 1011.131592,652.572815 1003.074646,646.873840 
	C986.589111,635.212891 980.962219,613.458923 987.930481,595.382568 
	C994.367615,578.683838 1006.934875,570.384094 1023.847351,568.268982 
	C1049.121582,565.107971 1063.981079,576.193542 1073.497314,595.289368 
	C1077.010498,602.338989 1076.809570,611.610718 1074.908447,620.250916 
	C1071.332764,636.501587 1061.931763,647.160156 1046.031738,652.736694 
M1028.048462,588.799438 
	C1022.002563,587.919434 1017.305908,590.364624 1014.173340,595.283386 
	C1010.063049,601.737427 1008.042786,608.443604 1009.552124,616.617371 
	C1012.200378,630.959229 1025.552856,638.338745 1038.668091,633.159485 
	C1054.615112,626.861877 1053.624634,602.795593 1046.237915,594.319397 
	C1041.257935,588.604858 1035.009033,589.403992 1028.048462,588.799438 
z"/>
<path fill="#052662" opacity="1.000000" stroke="none" 
	d="
M475.129028,585.012268 
	C475.108978,581.182800 475.206116,577.844788 475.042969,574.519531 
	C474.875916,571.114868 476.609924,569.399536 479.726013,569.402771 
	C485.040619,569.408386 490.432098,569.349487 495.617828,570.282104 
	C497.006653,570.531921 498.650269,574.263855 498.677673,576.416260 
	C498.915100,595.075012 498.815125,613.738159 498.804260,632.399963 
	C498.801178,637.731812 498.696960,643.064453 498.759766,648.395325 
	C498.804169,652.166809 497.110077,653.909729 493.318298,653.819946 
	C489.655182,653.733154 485.971741,653.616638 482.326172,653.893860 
	C477.543823,654.257446 475.443085,652.397583 476.087128,647.562805 
	C476.185699,646.822876 475.926178,646.035339 475.810242,645.090271 
	C462.046936,656.360657 442.199951,658.119019 427.127014,647.877686 
	C419.926178,642.985107 415.932312,635.474915 415.395874,627.368286 
	C414.245575,609.986328 414.477570,592.513977 414.087341,575.079895 
	C414.003082,571.316040 415.886963,569.460510 419.438171,569.384399 
	C423.758545,569.291809 428.085205,569.478455 432.408905,569.557556 
	C436.585358,569.634033 438.107330,571.719849 438.012421,575.908875 
	C437.778412,586.234680 437.795776,596.570068 437.935089,606.898621 
	C437.999878,611.701660 438.332123,616.532288 438.987976,621.289062 
	C440.072815,629.157227 445.449066,633.290955 453.590637,632.979675 
	C456.242340,632.878296 458.982117,633.228394 461.532379,632.679199 
	C468.620880,631.152527 473.219452,626.040649 473.877502,617.783936 
	C474.732178,607.060547 474.752472,596.270569 475.129028,585.012268 
z"/>
<path fill="#065ADC" opacity="1.000000" stroke="none" 
	d="
M1117.013428,600.430847 
	C1127.247070,604.071838 1138.351929,603.454468 1147.494995,609.910461 
	C1154.289673,614.708130 1157.416382,623.540222 1156.066162,631.869385 
	C1154.352417,642.440735 1147.775269,647.689270 1138.700562,651.530151 
	C1130.387451,655.048645 1121.930542,654.852051 1113.302368,654.019714 
	C1112.146118,653.908203 1110.953247,653.785706 1109.814941,653.942444 
	C1101.166260,655.133423 1093.912476,650.807434 1086.410034,647.815125 
	C1081.498169,645.856079 1081.267944,643.858765 1084.088257,639.074890 
	C1085.003418,637.522766 1085.958374,635.985046 1087.013062,634.526062 
	C1091.227539,628.696350 1092.258301,627.848938 1098.523804,631.404419 
	C1107.457886,636.474243 1116.783203,636.015198 1126.161621,634.884338 
	C1128.658081,634.583313 1131.213257,631.676758 1132.826904,629.335938 
	C1133.227539,628.754761 1130.409180,624.608643 1128.476807,624.006653 
	C1121.531738,621.843018 1114.378906,620.248169 1107.217651,618.901123 
	C1098.238281,617.212219 1090.951660,613.182129 1086.086304,605.283569 
	C1082.495483,599.454285 1083.703979,587.425232 1088.286255,581.337585 
	C1093.156738,574.867249 1099.367432,571.461182 1107.486328,569.686340 
	C1120.574829,566.825073 1133.138428,568.509338 1145.787231,571.205688 
	C1152.739380,572.687561 1154.280640,576.643066 1150.665771,582.614990 
	C1148.756836,585.768677 1146.850220,588.923889 1145.357422,591.392395 
	C1137.198486,589.630798 1129.987549,587.365784 1122.639771,586.759338 
	C1118.392578,586.408752 1113.788330,588.398804 1109.651001,590.086365 
	C1108.610596,590.510681 1107.874146,594.234009 1108.565308,595.704773 
	C1109.434937,597.555176 1111.824585,598.792297 1113.744873,599.996826 
	C1114.486328,600.462036 1115.739136,600.112122 1117.013428,600.430847 
z"/>
<path fill="#055ADD" opacity="1.000000" stroke="none" 
	d="
M917.358887,625.049500 
	C921.295349,624.362549 924.006714,625.343567 926.808838,627.920044 
	C929.066284,629.995728 932.555786,630.731445 935.441956,632.035950 
	C933.792114,641.116150 917.857300,653.637512 909.406189,654.152649 
	C894.300659,655.073486 879.906433,655.098206 867.556946,644.112732 
	C858.493225,636.050110 853.790222,626.089600 852.376404,614.487000 
	C850.185486,596.506042 865.319153,573.870239 881.528564,570.211060 
	C907.957092,564.245056 928.318726,570.961853 934.873596,588.161377 
	C932.380371,589.772400 929.846313,591.493958 927.232056,593.083496 
	C918.729065,598.253540 918.885071,598.031067 911.218262,591.742432 
	C906.578491,587.936646 900.736816,588.291992 895.080200,588.908020 
	C892.843262,589.151611 890.467529,589.079956 888.409790,589.840942 
	C880.130005,592.902527 877.818726,600.335388 876.959045,607.857849 
	C875.564758,620.058960 880.487671,629.659790 893.015442,634.204956 
	C898.855225,636.323730 903.978760,634.211487 908.849426,631.779236 
	C911.906555,630.252686 914.285095,627.367065 917.358887,625.049500 
z"/>
<path fill="#055ADD" opacity="1.000000" stroke="none" 
	d="
M778.898315,598.114685 
	C778.552002,610.188660 778.156311,621.784668 777.883728,633.383545 
	C777.747314,639.190430 777.896057,645.003662 777.793823,650.811890 
	C777.749634,653.323730 776.799316,654.305908 773.776672,654.030518 
	C768.237793,653.525818 762.619995,653.886780 756.114868,653.886780 
	C755.929260,652.979553 755.221741,651.032166 755.177490,649.069763 
	C754.776855,631.282593 754.489319,613.492920 754.177551,595.703796 
	C754.146240,593.915710 754.173279,592.126587 754.173279,589.785522 
	C751.297546,589.785522 749.011658,589.788208 746.725769,589.784302 
	C745.729309,589.782593 744.403687,590.181763 743.788452,589.692871 
	C738.769653,585.705566 741.932007,580.144043 741.342285,575.310059 
	C740.964905,572.216553 743.241516,571.008667 746.215515,571.142883 
	C755.595825,571.566040 754.413513,569.006409 754.989136,562.724426 
	C756.700439,544.049316 772.179749,533.916992 789.961060,536.426697 
	C793.689819,536.952942 797.405579,537.959961 800.941345,539.253723 
	C802.182312,539.707764 803.860840,541.909058 803.632141,542.930237 
	C802.608826,547.500488 801.083679,551.975891 799.427612,556.367859 
	C799.182922,557.016724 797.226257,557.394287 796.132690,557.270447 
	C793.915344,557.019226 791.761230,555.990051 789.555176,555.897522 
	C781.184143,555.546387 777.700073,559.560730 778.886597,567.807983 
	C779.219727,570.123657 779.746887,570.889343 782.696472,570.522949 
	C787.165710,569.967712 791.826660,570.721436 796.375427,571.206909 
	C797.494873,571.326355 799.385620,572.534119 799.406006,573.282898 
	C799.535400,578.038025 799.303772,582.808960 798.991760,587.561646 
	C798.957886,588.076111 797.684265,588.833923 796.922180,588.920715 
	C793.314514,589.331238 789.688538,589.714111 786.062012,589.798035 
	C778.898071,589.963928 778.754395,590.034058 778.898315,598.114685 
z"/>
<path fill="#052661" opacity="1.000000" stroke="none" 
	d="
M371.214966,642.879883 
	C371.209625,609.589844 371.263763,576.782715 371.132019,543.976440 
	C371.114075,539.509949 372.991974,538.027527 377.105560,538.165649 
	C380.931885,538.294128 384.778046,538.388489 388.593353,538.147644 
	C393.413910,537.843323 394.964294,539.916016 394.942993,544.628357 
	C394.798370,576.605042 394.856537,608.582642 394.850647,640.559937 
	C394.850098,643.391235 394.744415,646.228760 394.894867,649.052307 
	C395.074188,652.417542 393.779358,653.981567 390.272461,653.839111 
	C386.448730,653.684021 382.612854,653.842163 378.782318,653.836121 
	C372.232544,653.825867 371.423279,653.017517 371.239166,646.360840 
	C371.211548,645.362122 371.222656,644.362427 371.214966,642.879883 
z"/>
<path fill="#5997F1" opacity="1.000000" stroke="none" 
	d="
M844.969238,177.949066 
	C845.145996,178.001511 845.322754,178.053970 845.884460,178.359253 
	C846.465271,178.803528 846.696350,178.931351 846.962524,178.995544 
	C847.278320,179.182724 847.594116,179.369904 848.107056,179.987045 
	C848.464050,180.620270 848.661621,180.775528 848.896851,180.882797 
	C849.106812,180.950714 849.316772,181.018646 849.926636,181.332153 
	C850.474792,181.741852 850.656860,181.847824 850.872803,181.895660 
	C851.728210,181.662918 852.583557,181.430176 853.942627,181.352936 
	C854.930542,181.418777 855.414673,181.329117 855.898865,181.239441 
	C858.308533,181.188980 860.718140,181.138504 863.707397,181.468567 
	C866.187256,182.554108 868.087402,183.259094 869.987610,183.964066 
	C869.987610,183.964066 870.041748,183.956436 870.132141,184.160095 
	C870.376770,184.581345 870.560608,184.770172 870.773926,184.930206 
	C871.009216,185.289932 871.244568,185.649643 871.892944,186.271881 
	C872.466431,186.716171 872.660461,186.849030 872.888000,186.932968 
	C872.888000,186.932968 873.090088,186.978928 873.134827,187.225037 
	C873.292542,187.654449 873.448059,187.788483 873.645996,187.873276 
	C873.747437,188.373703 873.848938,188.874130 873.978699,190.082642 
	C874.250793,191.835556 874.494629,192.880386 874.738525,193.925217 
	C874.786926,195.033798 874.835266,196.142395 874.679688,197.827759 
	C874.573853,198.907196 874.671875,199.409851 874.769897,199.912521 
	C873.686951,202.207993 873.063110,204.932312 871.413391,206.698410 
	C868.937988,209.348511 868.736755,211.956573 869.259277,215.279251 
	C871.247559,227.921768 873.050110,240.595032 874.732849,253.281906 
	C874.920105,254.694122 873.898010,256.266724 873.436768,257.764923 
	C872.168823,257.179901 870.916321,256.558411 869.630310,256.016266 
	C864.342224,253.786865 863.873352,248.896286 863.177429,244.203613 
	C861.758057,234.632843 860.519836,225.034866 859.059265,215.470657 
	C858.350708,210.830673 853.001038,207.672913 848.439087,210.352081 
	C839.994446,215.311462 832.097778,221.247498 824.259888,227.157410 
	C822.791077,228.264969 822.154236,231.117676 822.014771,233.223434 
	C821.632507,238.993225 816.630615,245.854736 811.044556,247.571106 
	C804.164978,249.684906 799.278015,247.523087 794.509705,242.168243 
	C790.494751,237.659439 790.482971,233.039200 791.757019,227.943420 
	C793.075256,222.670898 789.132935,220.397247 786.165527,216.796158 
	C787.721802,213.743530 789.317566,211.386307 791.244507,209.150284 
	C796.068359,214.210938 800.889465,218.375153 808.330994,217.177734 
	C809.350281,217.013718 810.780090,217.400574 811.555603,218.070084 
	C814.769348,220.844391 817.493591,219.143677 820.168701,217.335037 
	C827.662231,212.268631 835.125427,207.156433 842.555420,201.997345 
	C845.923157,199.658905 846.103027,192.264023 843.106934,189.407806 
	C840.293091,186.725372 837.666321,183.846695 835.216309,180.833755 
	C838.397278,178.860413 841.180237,176.612045 844.969238,177.949066 
z"/>
<path fill="#065CDB" opacity="1.000000" stroke="none" 
	d="
M734.057068,189.695251 
	C733.092896,189.580154 732.056641,189.653961 731.176514,189.318466 
	C726.405090,187.499878 722.720215,187.458084 718.789795,192.108063 
	C713.610229,198.235992 700.753540,197.271683 696.141907,191.367767 
	C690.080322,183.607544 691.489624,174.566360 699.360596,168.867889 
	C700.724487,167.880478 701.919495,165.720245 701.990479,164.050629 
	C702.287231,157.071609 702.374939,150.058929 701.978088,143.090530 
	C701.861145,141.036911 700.248962,138.753204 698.717773,137.153152 
	C693.658691,131.866577 689.724548,125.184715 695.074646,117.110443 
	C699.111389,111.018120 707.735229,107.822311 714.684265,111.419525 
	C717.915710,113.092293 720.046875,116.888000 722.681519,119.716965 
	C723.710510,120.821854 724.564575,122.540596 725.817505,122.917007 
	C740.102478,127.208412 754.449097,131.294205 768.645142,135.957260 
	C763.627625,135.835159 761.837646,138.316803 761.684387,142.854004 
	C751.058594,139.907303 740.872009,136.767975 730.560669,134.113647 
	C727.414246,133.303696 723.442993,132.742569 720.690613,133.963623 
	C714.690063,136.625717 711.485596,141.585419 712.784119,148.714035 
	C713.224792,151.133133 712.981201,153.706024 712.838013,156.196426 
	C712.501221,162.055237 712.201233,167.819855 718.544189,171.148193 
	C719.189331,171.486740 719.366394,172.646576 719.995361,173.099045 
	C722.430237,174.850662 724.756592,177.049362 727.498840,178.013260 
	C732.552368,179.789520 737.870972,180.811539 742.769409,182.327454 
	C738.259155,183.267014 735.769836,186.027267 734.057068,189.695251 
z"/>
<path fill="#0558DB" opacity="1.000000" stroke="none" 
	d="
M815.099854,622.002563 
	C815.095642,604.223816 815.095642,586.945557 815.095642,569.209900 
	C822.491882,569.209900 829.456665,569.020386 836.390930,569.395203 
	C837.555664,569.458191 839.404663,571.890564 839.534668,573.352905 
	C839.990479,578.478638 839.900635,583.658997 839.896423,588.818481 
	C839.880798,607.970154 839.782715,627.121765 839.788452,646.273438 
	C839.790527,653.368713 839.375488,653.874084 832.173157,653.855713 
	C828.673279,653.846802 825.170898,653.752014 821.674133,653.852112 
	C816.588806,653.997681 815.306946,652.903442 815.222656,647.452393 
	C815.094116,639.137329 815.135071,630.819641 815.099854,622.002563 
z"/>
<path fill="#0558DA" opacity="1.000000" stroke="none" 
	d="
M970.953369,650.961182 
	C969.522400,651.909363 968.148438,653.552185 966.649658,653.675232 
	C962.188721,654.041687 957.658386,653.546021 953.193481,653.887939 
	C948.707764,654.231506 947.248657,652.093750 947.250854,648.111084 
	C947.255920,638.963440 947.240967,629.815857 947.236938,620.668213 
	C947.230347,605.865906 947.200378,591.063599 947.232788,576.261353 
	C947.246948,569.797180 947.899658,569.218262 954.374634,569.222778 
	C958.532776,569.225647 962.692871,569.285400 966.848450,569.178955 
	C969.799561,569.103394 970.989746,570.249023 970.910645,573.310425 
	C970.724670,580.506836 970.720947,587.711609 970.829956,594.910156 
	C970.871826,597.671692 971.421021,600.425537 971.519104,603.980774 
	C971.183960,620.172791 971.068665,635.567017 970.953369,650.961182 
z"/>
<path fill="#0C62DB" opacity="1.000000" stroke="none" 
	d="
M726.031921,423.008301 
	C725.985413,425.094849 725.938965,427.181427 725.633423,429.650818 
	C724.574646,430.664490 723.775024,431.295319 722.982056,431.957214 
	C722.988647,431.988312 722.926453,431.975128 722.596069,432.062012 
	C719.555359,434.912140 716.702148,437.553101 714.191833,440.487396 
	C712.827515,442.082123 711.299072,444.116394 711.145508,446.055389 
	C710.729370,451.313171 711.436584,456.669250 710.907410,461.906433 
	C710.174744,469.156036 711.735779,474.841797 719.028931,478.212372 
	C722.048828,479.660217 724.728882,481.004120 723.988586,484.928986 
	C724.360962,491.996582 718.320984,499.194977 710.745239,500.712402 
	C703.759155,502.111694 695.729492,497.572418 693.191284,490.788910 
	C691.253113,485.609009 693.802490,478.359406 698.285278,474.047729 
	C700.149902,472.254242 701.593872,469.383087 701.962952,466.819641 
	C702.573486,462.579895 702.046570,458.188385 702.202637,453.868195 
	C702.408569,448.168060 701.899292,443.404114 696.964417,438.893951 
	C690.511169,432.996216 691.781616,422.582184 698.714844,417.126953 
	C700.678711,415.581757 703.830933,415.546844 707.004089,414.931396 
	C708.409973,414.983368 709.249817,414.923157 710.089722,414.862976 
	C710.828918,414.947906 711.568176,415.032806 712.787109,415.517395 
	C717.001831,419.217010 719.824402,424.159332 726.031921,423.008301 
z"/>
<path fill="#5794EE" opacity="1.000000" stroke="none" 
	d="
M810.039185,375.001892 
	C811.438843,373.546875 812.838562,372.091858 814.407471,370.388855 
	C819.465576,372.697052 824.304016,375.357330 829.268127,377.757996 
	C831.247559,378.715240 833.540649,379.727325 835.265991,376.949005 
	C835.604858,376.403351 836.628235,376.099487 837.372314,376.018219 
	C842.763489,375.429260 846.062195,372.568176 849.102539,367.971985 
	C850.764832,365.459106 855.567871,365.023773 858.954529,363.651550 
	C859.485657,364.030640 860.016785,364.409698 860.547852,364.788757 
	C859.137451,368.572052 857.608032,372.317261 856.379272,376.158661 
	C855.931458,377.558350 855.521118,379.754883 856.247253,380.622101 
	C862.508972,388.100586 858.676270,403.687469 846.245544,404.786224 
	C845.486511,404.524902 845.244568,404.574310 845.031921,404.779572 
	C844.560852,404.810120 844.089844,404.840698 843.176514,404.711945 
	C842.476807,404.459900 842.254517,404.516235 842.067383,404.721619 
	C841.588501,404.769073 841.109680,404.816559 840.114624,404.574036 
	C838.745361,404.514618 837.892334,404.745209 837.039246,404.975769 
	C837.039246,404.975769 837.036011,405.042816 836.666199,405.099274 
	C834.852173,407.068115 833.407898,408.980499 831.963684,410.892853 
	C831.963684,410.892853 831.960876,410.973846 831.737671,411.095642 
	C831.287048,411.412445 831.109680,411.645477 830.982422,411.916626 
	C830.507812,412.550751 830.033203,413.184814 828.924805,413.942627 
	C823.391296,418.697449 818.421997,423.258667 813.651550,428.019226 
	C812.710327,428.958405 812.534973,430.664948 812.006409,432.017578 
	C812.006409,432.017578 812.000000,431.993683 811.814026,432.128723 
	C811.382080,432.468689 811.194763,432.717773 811.066223,433.011017 
	C811.066223,433.011017 811.070251,433.053436 810.882019,433.180786 
	C810.485168,433.493439 810.317749,433.710510 810.191528,433.959412 
	C807.479492,436.118103 804.767395,438.276825 801.496033,440.709198 
	C797.544006,440.398682 795.102295,439.027832 796.053467,434.650574 
	C797.111694,433.570068 798.057495,432.782471 799.200928,431.858765 
	C799.646423,431.512573 799.842468,431.261932 800.048706,430.720032 
	C800.399658,430.305145 800.688599,430.141083 801.176941,429.850037 
	C801.626465,429.524048 801.829407,429.285004 801.987244,428.998291 
	C801.989380,428.990692 802.004272,428.985291 802.198608,428.853027 
	C802.638306,428.519989 802.842163,428.283386 803.002319,428.004883 
	C803.000000,427.998779 803.011475,428.004883 803.208862,427.872498 
	C803.653687,427.534485 803.850769,427.288483 803.998657,427.000793 
	C804.000000,426.999481 804.001953,426.996429 804.193115,426.859619 
	C804.625061,426.517334 804.825256,426.277924 804.987732,425.996704 
	C804.990540,425.988861 805.006775,425.985840 805.201111,425.872192 
	C805.639526,425.578125 805.845459,425.361420 806.135071,424.861115 
	C806.553833,424.404999 806.850769,424.196198 807.491089,423.963379 
	C812.342712,421.315765 816.822144,418.665466 818.094360,412.682434 
	C818.792542,411.938171 819.390198,411.467163 820.184082,410.860809 
	C820.626343,410.517639 820.825256,410.271851 820.986633,409.992218 
	C820.996033,409.996338 820.986877,409.978333 821.289917,409.879150 
	C822.074951,408.898376 822.556885,408.016785 823.059326,407.069305 
	C823.079773,407.003418 823.211182,407.045532 823.373413,406.964996 
	C823.741455,406.748901 823.903992,406.573181 824.238647,406.070923 
	C825.561890,404.151520 826.548157,402.417908 827.800049,400.904114 
	C831.689453,396.201233 830.353882,388.510559 824.860718,385.966522 
	C819.865967,383.653259 814.664734,381.785675 809.507507,379.446411 
	C809.253174,378.445557 809.045837,377.719910 808.838501,376.994263 
	C808.838501,376.994263 808.986206,376.643188 809.226746,376.282471 
	C809.657898,375.615143 809.848511,375.308533 810.039185,375.001892 
z"/>
<path fill="#3F84EC" opacity="1.000000" stroke="none" 
	d="
M790.913269,209.029099 
	C789.317566,211.386307 787.721802,213.743530 786.082764,216.445984 
	C780.866211,210.597961 773.902771,213.434830 768.118530,214.424194 
	C765.230347,214.918198 762.998840,220.228027 760.813782,223.583206 
	C758.598572,226.984695 756.806641,230.661880 754.826050,234.582199 
	C751.773499,233.172470 748.724304,231.398849 745.409180,229.447800 
	C748.882935,223.607666 752.622559,217.944946 756.888550,211.939178 
	C757.587158,211.092270 757.759399,210.588425 757.931702,210.084579 
	C757.931702,210.084579 757.928650,209.940155 758.314331,209.829758 
	C760.609924,207.850998 760.486267,206.274597 758.027222,205.033478 
	C758.027222,205.033478 757.965088,205.037628 757.989624,204.563110 
	C757.833252,197.957077 756.296204,191.519440 761.940735,186.697479 
	C762.029724,186.621506 761.980957,186.384338 762.237427,186.144348 
	C762.643616,186.032974 762.808899,185.999680 763.168152,185.889160 
	C763.601318,185.662476 763.803955,185.473694 764.242065,185.171539 
	C764.695984,185.049454 764.877747,185.001465 765.421631,184.977966 
	C767.166809,184.438400 768.549866,183.874374 770.339844,183.237808 
	C771.844604,183.091446 772.942383,183.017609 774.252197,183.099213 
	C774.970520,182.496750 775.476929,181.738861 775.991638,180.991089 
	C776.000000,181.001221 775.976807,180.985748 776.186829,180.792694 
	C776.569641,180.066055 776.742493,179.532486 777.067627,178.686172 
	C778.579102,176.195480 779.938293,174.017532 781.427917,171.778290 
	C781.721558,171.590118 781.800293,171.423355 781.836121,171.102081 
	C781.877747,170.987427 782.119690,170.956390 782.542908,170.970490 
	C786.311584,170.905548 789.656982,170.826538 792.684692,170.950867 
	C791.889465,172.363983 791.541443,173.645996 790.913269,174.771713 
	C786.971924,181.835266 781.328796,188.564606 786.817200,197.338562 
	C786.891968,197.458038 786.857971,197.671921 786.822571,197.830017 
	C785.789062,202.440155 787.804504,205.933792 790.913269,209.029099 
z"/>
<path fill="#488BE8" opacity="1.000000" stroke="none" 
	d="
M795.940979,434.943451 
	C795.102295,439.027832 797.544006,440.398682 801.282837,441.011749 
	C799.199158,443.733887 798.275208,446.514526 798.672119,450.470856 
	C800.036560,464.070160 785.205933,470.406281 776.256958,465.084900 
	C771.385864,462.188354 768.351440,466.094299 764.122620,467.472260 
	C763.531555,465.891083 763.449890,464.442200 763.382812,463.251984 
	C761.789307,462.170258 760.352783,461.195099 759.249634,460.075500 
	C761.631653,458.584656 763.813599,457.397064 765.677612,455.831055 
	C766.759705,454.921936 767.625549,453.501160 768.070129,452.141113 
	C768.960388,449.417450 769.615417,446.599182 770.125183,443.776184 
	C770.385132,442.336670 770.638062,440.522217 770.007385,439.357330 
	C766.455444,432.796753 762.634033,426.382080 759.123779,419.731445 
	C759.561829,419.020660 759.780640,418.496063 759.999451,417.971436 
	C761.543701,417.177826 763.087952,416.384216 765.221619,415.317871 
	C766.615173,414.976166 767.419250,414.907227 768.162109,415.201782 
	C770.374695,419.846283 772.390564,424.293915 775.010437,428.351471 
	C776.851624,431.203094 779.107666,434.955017 781.905518,435.751770 
	C786.292603,437.001099 791.532715,439.066437 795.940979,434.943451 
M786.181580,438.177277 
	C785.151367,439.313049 783.738831,440.309814 783.253784,441.643860 
	C783.014893,442.301086 784.307983,443.924347 785.267578,444.436554 
	C785.751343,444.694824 787.770447,443.501282 787.813904,442.875122 
	C787.917114,441.390808 787.255249,439.853363 786.181580,438.177277 
z"/>
<path fill="#367DE7" opacity="1.000000" stroke="none" 
	d="
M793.002441,170.747528 
	C789.656982,170.826538 786.311584,170.905548 782.667480,170.645660 
	C787.303467,164.900284 785.191284,158.793930 783.951660,152.848892 
	C783.770264,151.978851 782.484497,151.113251 781.515503,150.674835 
	C778.391663,149.261551 775.177124,148.048874 772.109253,146.436981 
	C773.597595,143.677948 778.244629,143.599228 777.243713,139.294220 
	C777.384766,139.242676 777.663086,139.129883 777.663086,139.129883 
	C778.234009,139.464203 778.804932,139.798538 779.805420,140.313202 
	C780.234924,140.493546 780.610291,140.562134 780.610291,140.562134 
	C780.610291,140.562134 780.961548,140.405945 780.961548,140.405945 
	C785.109924,142.336502 788.633667,141.826706 792.757263,139.322693 
	C801.401917,134.073227 813.456116,141.359161 814.745056,152.128937 
	C814.902893,153.447617 814.870117,154.789108 814.729675,156.819397 
	C812.342224,160.359909 810.150818,163.201050 807.792969,166.366623 
	C802.751892,168.043198 797.877136,169.395355 793.002441,170.747528 
z"/>
<path fill="#0558DA" opacity="1.000000" stroke="none" 
	d="
M838.616882,535.455322 
	C841.809204,541.345276 843.350403,546.839905 839.449280,552.840759 
	C836.622192,557.189575 830.273438,559.924561 824.092224,558.640381 
	C818.407288,557.459229 813.752869,552.499695 813.087341,547.444336 
	C812.188904,540.619751 815.267151,536.088806 820.880798,532.864014 
	C825.824463,530.024109 830.674255,530.682678 835.419128,533.437439 
	C836.405029,534.009888 837.387451,534.588257 838.616882,535.455322 
z"/>
<path fill="#0558DA" opacity="1.000000" stroke="none" 
	d="
M960.595581,531.389587 
	C962.985779,532.205139 965.078552,532.764893 966.959656,533.735046 
	C972.751526,536.722290 975.004150,541.504028 973.719543,547.633911 
	C972.626709,552.848450 966.761414,558.243042 961.654907,558.730347 
	C953.168518,559.540222 945.555237,553.842041 945.086731,546.329895 
	C944.542419,537.602356 950.454590,531.731689 960.595581,531.389587 
z"/>
<path fill="#2272E0" opacity="1.000000" stroke="none" 
	d="
M758.916199,460.219910 
	C760.352783,461.195099 761.789307,462.170258 763.382812,463.251984 
	C763.449890,464.442200 763.531555,465.891083 763.794434,467.604645 
	C751.817078,473.224915 739.658569,478.580505 727.018433,483.955688 
	C726.536865,483.975250 726.264282,484.157837 726.264282,484.157837 
	C725.776733,484.380524 725.289185,484.603210 724.395142,484.877441 
	C724.728882,481.004120 722.048828,479.660217 719.384766,478.205811 
	C721.110291,477.036011 722.584045,476.154572 724.424133,475.181946 
	C735.505005,470.399414 746.219421,465.708099 757.124817,460.891785 
	C757.579834,460.612640 757.828735,460.437012 758.274414,460.170044 
	C758.486328,460.100311 758.916199,460.219910 758.916199,460.219910 
z"/>
<path fill="#488BE8" opacity="1.000000" stroke="none" 
	d="
M807.959412,166.042206 
	C810.150818,163.201050 812.342224,160.359909 814.748535,157.248932 
	C820.724487,160.628937 826.573669,164.148529 832.217773,167.970993 
	C836.524292,170.887543 840.570923,174.187851 844.851196,177.633240 
	C841.180237,176.612045 838.397278,178.860413 834.849792,180.794312 
	C829.772949,178.096680 825.432495,175.023880 820.837341,172.396637 
	C816.689514,170.025192 812.263000,168.141159 807.959412,166.042206 
z"/>
<path fill="#367DE7" opacity="1.000000" stroke="none" 
	d="
M761.711182,401.991150 
	C759.248779,404.702850 756.469360,407.261292 753.129761,409.906067 
	C752.569519,409.992371 752.084778,410.009644 752.084839,410.009644 
	C749.469482,404.836975 746.853271,399.664764 744.239197,394.491486 
	C742.783875,391.611481 741.332092,388.729706 739.722412,385.510193 
	C742.101807,383.736145 744.637512,382.300629 747.554565,380.809143 
	C752.421997,387.781433 756.908081,394.809662 761.711182,401.991150 
z"/>
<path fill="#296EDA" opacity="1.000000" stroke="none" 
	d="
M761.996460,186.222397 
	C761.980957,186.384338 762.029724,186.621506 761.940735,186.697479 
	C756.296204,191.519440 757.833252,197.957077 757.990601,204.531982 
	C757.386658,204.053299 756.232788,203.072937 756.319580,202.218628 
	C756.864685,196.853821 753.832886,195.268448 749.251526,194.389801 
	C745.333008,193.638275 741.575439,192.047928 737.261597,190.561432 
	C736.610352,190.117630 736.407532,190.009460 736.168213,189.969742 
	C735.695007,189.932129 735.221802,189.894501 734.402832,189.776062 
	C735.769836,186.027267 738.259155,183.267014 743.080750,182.311768 
	C744.113098,182.182800 744.524292,182.249100 745.083191,182.467926 
	C745.449768,182.805740 745.696228,182.940659 746.350830,183.064285 
	C748.563721,183.795776 750.344421,184.774551 752.240051,185.116699 
	C755.454041,185.696808 758.740479,185.875168 761.996460,186.222397 
z"/>
<path fill="#2272E0" opacity="1.000000" stroke="none" 
	d="
M777.102661,139.345764 
	C778.244629,143.599228 773.597595,143.677948 771.747986,146.389832 
	C768.208557,145.392303 765.142151,144.120071 762.075684,142.847809 
	C761.837646,138.316803 763.627625,135.835159 768.787842,136.308258 
	C769.477722,136.162720 769.890930,136.188522 770.764404,136.570740 
	C772.422302,137.308517 773.619934,137.689865 774.817566,138.071228 
	C775.299744,138.138000 775.781982,138.204788 776.627625,138.628998 
	C776.991089,138.986435 777.102661,139.345764 777.102661,139.345764 
z"/>
<path fill="#0558DA" opacity="1.000000" stroke="none" 
	d="
M726.423950,422.997742 
	C719.824402,424.159332 717.001831,419.217010 713.141846,415.630005 
	C714.665710,415.918701 717.086304,415.994232 717.836914,417.152222 
	C722.392761,424.180969 728.280212,420.482117 733.494263,419.057892 
	C738.572510,417.670746 743.325134,415.091553 748.593811,413.000427 
	C746.693787,414.682434 744.647949,416.954102 742.099121,417.998993 
	C737.154175,420.026154 731.926453,421.363831 726.423950,422.997742 
z"/>
<path fill="#033179" opacity="1.000000" stroke="none" 
	d="
M522.593262,289.248840 
	C522.921509,291.909790 522.859436,294.820251 522.961365,297.725006 
	C523.267883,306.461670 523.638184,315.196045 524.054688,324.376892 
	C523.581909,324.235016 522.610413,323.682587 522.559021,323.054840 
	C521.897095,314.969788 518.033936,307.153168 520.802490,298.749451 
	C521.767334,295.820709 521.812622,292.589050 522.593262,289.248840 
z"/>
<path fill="#488BE8" opacity="1.000000" stroke="none" 
	d="
M812.327515,431.915588 
	C812.534973,430.664948 812.710327,428.958405 813.651550,428.019226 
	C818.421997,423.258667 823.391296,418.697449 828.640259,414.045349 
	C823.542542,419.954102 818.095520,425.883850 812.327515,431.915588 
z"/>
<path fill="#296EDA" opacity="1.000000" stroke="none" 
	d="
M971.372437,650.815796 
	C971.068665,635.567017 971.183960,620.172791 971.463867,604.403931 
	C971.682800,619.576294 971.737122,635.123352 971.372437,650.815796 
z"/>
<path fill="#488BE8" opacity="1.000000" stroke="none" 
	d="
M832.284790,410.797607 
	C833.407898,408.980499 834.852173,407.068115 836.632690,405.096863 
	C835.514648,406.926147 834.060303,408.814240 832.284790,410.797607 
z"/>
<path fill="#488BE8" opacity="1.000000" stroke="none" 
	d="
M869.861084,183.642868 
	C868.087402,183.259094 866.187256,182.554108 864.152100,181.546631 
	C865.922974,181.936646 867.828735,182.629166 869.861084,183.642868 
z"/>
<path fill="#296EDA" opacity="1.000000" stroke="none" 
	d="
M758.031982,205.442642 
	C760.486267,206.274597 760.609924,207.850998 758.386475,209.826828 
	C758.060913,208.573471 758.048828,207.212631 758.031982,205.442642 
z"/>
<path fill="#0558DA" opacity="1.000000" stroke="none" 
	d="
M751.754883,410.065979 
	C752.084778,410.009644 752.569519,409.992371 752.810913,410.021057 
	C751.925659,411.012695 750.799072,411.975708 749.319824,412.952209 
	C749.786438,412.017914 750.605713,411.070099 751.754883,410.065979 
z"/>
<path fill="#065CDB" opacity="1.000000" stroke="none" 
	d="
M774.677002,137.767609 
	C773.619934,137.689865 772.422302,137.308517 771.066284,136.646576 
	C772.117432,136.732010 773.326904,137.098007 774.677002,137.767609 
z"/>
<path fill="#0558DA" opacity="1.000000" stroke="none" 
	d="
M709.868652,414.620605 
	C709.249817,414.923157 708.409973,414.983368 707.381592,414.891113 
	C708.011292,414.618530 708.829407,414.498383 709.868652,414.620605 
z"/>
<path fill="#488BE8" opacity="1.000000" stroke="none" 
	d="
M837.402222,404.963440 
	C837.892334,404.745209 838.745361,404.514618 839.759583,404.497528 
	C839.202209,404.791077 838.483765,404.871094 837.402222,404.963440 
z"/>
<path fill="#488BE8" opacity="1.000000" stroke="none" 
	d="
M874.823608,193.585815 
	C874.494629,192.880386 874.250793,191.835556 874.034546,190.464294 
	C874.344238,191.174042 874.626465,192.210236 874.823608,193.585815 
z"/>
<path fill="#488BE8" opacity="1.000000" stroke="none" 
	d="
M874.838501,199.607147 
	C874.671875,199.409851 874.573853,198.907196 874.604065,198.238342 
	C874.790588,198.482025 874.848816,198.891907 874.838501,199.607147 
z"/>
<path fill="#296EDA" opacity="1.000000" stroke="none" 
	d="
M757.658691,210.180603 
	C757.759399,210.588425 757.587158,211.092270 757.209106,211.772415 
	C757.130798,211.391357 757.258240,210.833984 757.658691,210.180603 
z"/>
<path fill="#488BE8" opacity="1.000000" stroke="none" 
	d="
M855.609619,181.160812 
	C855.414673,181.329117 854.930542,181.418777 854.295410,181.379242 
	C854.536377,181.194092 854.928406,181.138138 855.609619,181.160812 
z"/>
<path fill="#488BE8" opacity="1.000000" stroke="none" 
	d="
M870.817627,184.689819 
	C870.560608,184.770172 870.376770,184.581345 870.133057,184.187408 
	C870.413452,183.975922 870.685974,184.122040 870.817627,184.689819 
z"/>
<path fill="#488BE8" opacity="1.000000" stroke="none" 
	d="
M846.903442,178.762955 
	C846.696350,178.931351 846.465271,178.803528 846.143372,178.456512 
	C846.369995,178.100220 846.645691,178.176682 846.903442,178.762955 
z"/>
<path fill="#065CDB" opacity="1.000000" stroke="none" 
	d="
M736.218079,190.164642 
	C736.407532,190.009460 736.610352,190.117630 736.871582,190.441360 
	C736.966553,190.588455 736.566528,190.628662 736.566528,190.628662 
	C736.566528,190.628662 736.267944,190.359528 736.218079,190.164642 
z"/>
<path fill="#488BE8" opacity="1.000000" stroke="none" 
	d="
M873.680542,187.685104 
	C873.448059,187.788483 873.292542,187.654449 873.123108,187.328033 
	C873.356750,187.135406 873.572937,187.239410 873.680542,187.685104 
z"/>
<path fill="#488BE8" opacity="1.000000" stroke="none" 
	d="
M872.877747,186.706787 
	C872.660461,186.849030 872.466431,186.716171 872.201111,186.390991 
	C872.433105,186.061874 872.690186,186.139542 872.877747,186.706787 
z"/>
<path fill="#033179" opacity="1.000000" stroke="none" 
	d="
M523.459473,286.030090 
	C523.586670,286.200012 523.467529,286.421936 523.202393,286.776306 
	C522.901978,286.603516 522.954285,286.327972 523.459473,286.030090 
z"/>
<path fill="#2272E0" opacity="1.000000" stroke="none" 
	d="
M780.738159,140.307343 
	C780.961548,140.405945 780.610291,140.562134 780.610291,140.562134 
	C780.610291,140.562134 780.234924,140.493546 780.137085,140.406815 
	C780.039246,140.320084 780.514709,140.208725 780.738159,140.307343 
z"/>
<path fill="#065CDB" opacity="1.000000" stroke="none" 
	d="
M777.243713,139.294220 
	C777.102661,139.345764 776.991089,138.986435 776.948853,138.802612 
	C777.171814,138.483444 777.399109,138.530594 777.625854,138.945053 
	C777.663086,139.129883 777.384766,139.242676 777.243713,139.294220 
z"/>
<path fill="#488BE8" opacity="1.000000" stroke="none" 
	d="
M850.845886,181.700958 
	C850.656860,181.847824 850.474792,181.741852 850.237976,181.444702 
	C850.439880,181.145737 850.663086,181.210617 850.845886,181.700958 
z"/>
<path fill="#488BE8" opacity="1.000000" stroke="none" 
	d="
M842.282593,404.788391 
	C842.254517,404.516235 842.476807,404.459900 842.829468,404.632050 
	C842.924744,404.711487 842.497742,404.855194 842.282593,404.788391 
z"/>
<path fill="#488BE8" opacity="1.000000" stroke="none" 
	d="
M845.262939,404.849823 
	C845.244568,404.574310 845.486511,404.524902 845.859985,404.716675 
	C845.962158,404.802032 845.493958,404.920074 845.262939,404.849823 
z"/>
<path fill="#488BE8" opacity="1.000000" stroke="none" 
	d="
M831.216980,411.855347 
	C831.109680,411.645477 831.287048,411.412445 831.697205,411.093506 
	C831.901550,411.329803 831.758789,411.604614 831.216980,411.855347 
z"/>
<path fill="#488BE8" opacity="1.000000" stroke="none" 
	d="
M848.869080,180.669769 
	C848.661621,180.775528 848.464050,180.620270 848.208374,180.254852 
	C848.436096,180.052856 848.679016,180.174194 848.869080,180.669769 
z"/>
<path fill="#0C62DB" opacity="1.000000" stroke="none" 
	d="
M726.355042,484.242493 
	C726.264282,484.157837 726.536865,483.975250 726.620117,483.967590 
	C726.703430,483.959930 726.445801,484.327148 726.355042,484.242493 
z"/>
<path fill="#488BE8" opacity="1.000000" stroke="none" 
	d="
M811.295166,432.920654 
	C811.194763,432.717773 811.382080,432.468689 811.825562,432.134155 
	C811.975464,432.351532 811.809143,432.626770 811.295166,432.920654 
z"/>
<path fill="#488BE8" opacity="1.000000" stroke="none" 
	d="
M810.424805,433.924561 
	C810.317749,433.710510 810.485168,433.493439 810.861511,433.186462 
	C811.077209,433.417145 810.953491,433.692108 810.424805,433.924561 
z"/>
<path fill="#033179" opacity="1.000000" stroke="none" 
	d="
M687.786377,439.863892 
	C687.461609,439.986328 687.242188,439.769684 687.035889,439.254608 
	C687.259460,439.217041 687.540405,439.406586 687.786377,439.863892 
z"/>
<path fill="#000000" opacity="1.000000" stroke="none" 
	d="
M756.933838,461.016785 
	C746.219421,465.708099 735.505005,470.399414 724.048218,475.109436 
	C720.903198,476.049622 719.094360,475.064819 717.057373,473.728851 
	C713.874939,471.641602 712.504822,469.184265 712.795166,465.279938 
	C713.162476,460.340912 713.134399,455.335480 712.795166,450.391754 
	C712.481689,445.824310 713.903198,442.809662 717.756042,440.044891 
	C720.167847,438.314240 721.248535,434.728485 722.926453,431.975128 
	C722.926453,431.975128 722.988647,431.988312 723.342041,431.914062 
	C725.425903,431.225464 727.156433,430.611115 728.886902,429.996704 
	C729.370117,429.958160 729.853271,429.919617 730.981323,429.868591 
	C732.092773,429.575531 732.559448,429.294983 733.026123,429.014465 
	C733.191040,428.989868 733.355957,428.965271 734.136597,428.918945 
	C742.802979,425.903992 750.853760,422.910828 758.904541,419.917603 
	C762.634033,426.382080 766.455444,432.796753 770.007385,439.357330 
	C770.638062,440.522217 770.385132,442.336670 770.125183,443.776184 
	C769.615417,446.599182 768.960388,449.417450 768.070129,452.141113 
	C767.625549,453.501160 766.759705,454.921936 765.677612,455.831055 
	C763.813599,457.397064 761.631653,458.584656 759.249634,460.075500 
	C758.916199,460.219910 758.486328,460.100311 758.010498,460.143311 
	C757.334412,460.463135 757.134155,460.739929 756.933838,461.016785 
z"/>
<path fill="#000000" opacity="1.000000" stroke="none" 
	d="
M796.053467,434.650574 
	C791.532715,439.066437 786.292603,437.001099 781.905518,435.751770 
	C779.107666,434.955017 776.851624,431.203094 775.010437,428.351471 
	C772.390564,424.293915 770.374695,419.846283 768.451904,415.092407 
	C772.177551,411.742767 775.552063,408.866028 778.926636,405.989288 
	C779.221252,405.809387 779.515808,405.629456 780.255432,405.168457 
	C783.779846,402.253876 786.859253,399.620392 789.938599,396.986938 
	C790.229858,396.797485 790.521118,396.608032 791.244873,396.154480 
	C796.141052,391.379150 800.541382,386.802185 805.110840,382.400818 
	C806.325439,381.230957 808.059143,380.600006 809.554504,379.721619 
	C814.664734,381.785675 819.865967,383.653259 824.860718,385.966522 
	C830.353882,388.510559 831.689453,396.201233 827.800049,400.904114 
	C826.548157,402.417908 825.561890,404.151520 824.041626,406.091919 
	C823.375916,406.541016 823.236572,406.756439 823.211182,407.045532 
	C823.211182,407.045532 823.079773,407.003418 822.749878,407.125977 
	C821.942322,408.158447 821.464600,409.068390 820.986877,409.978333 
	C820.986877,409.978333 820.996033,409.996338 820.744568,410.070526 
	C820.324646,410.428528 820.156250,410.712372 819.987793,410.996185 
	C819.390198,411.467163 818.792542,411.938171 817.780640,412.806519 
	C813.960144,416.798370 810.553955,420.392883 807.147705,423.987396 
	C806.850769,424.196198 806.553833,424.404999 805.885681,424.887177 
	C805.345215,425.435638 805.175964,425.710724 805.006775,425.985840 
	C805.006775,425.985840 804.990540,425.988861 804.733276,426.052185 
	C804.318054,426.409180 804.160034,426.702820 804.001953,426.996429 
	C804.001953,426.996429 804.000000,426.999481 803.755066,427.075867 
	C803.343933,427.436432 803.177673,427.720642 803.011475,428.004883 
	C803.011475,428.004883 803.000000,427.998779 802.749268,428.059814 
	C802.333740,428.408966 802.169006,428.697144 802.004272,428.985291 
	C802.004272,428.985291 801.989380,428.990692 801.745422,429.068665 
	C801.326843,429.423401 801.152222,429.700195 800.977539,429.976990 
	C800.688599,430.141083 800.399658,430.305145 799.809082,430.806519 
	C799.339417,431.427521 799.171326,431.711182 799.003235,431.994843 
	C798.057495,432.782471 797.111694,433.570068 796.053467,434.650574 
z"/>
<path fill="#0558DA" opacity="1.000000" stroke="none" 
	d="
M809.507507,379.446411 
	C808.059143,380.600006 806.325439,381.230957 805.110840,382.400818 
	C800.541382,386.802185 796.141052,391.379150 791.325195,395.899109 
	C796.716736,389.659668 802.460388,383.411438 808.521240,377.078735 
	C809.045837,377.719910 809.253174,378.445557 809.507507,379.446411 
z"/>
<path fill="#0558DA" opacity="1.000000" stroke="none" 
	d="
M759.123779,419.731445 
	C750.853760,422.910828 742.802979,425.903992 734.374878,428.843140 
	C734.395569,428.276001 734.687317,427.498993 735.207642,427.289307 
	C743.275757,424.037781 751.373474,420.859741 759.731934,417.818085 
	C759.780640,418.496063 759.561829,419.020660 759.123779,419.731445 
z"/>
<path fill="#0558DA" opacity="1.000000" stroke="none" 
	d="
M778.558960,406.011200 
	C775.552063,408.866028 772.177551,411.742767 768.513184,414.728882 
	C767.419250,414.907227 766.615173,414.976166 765.412903,415.052063 
	C769.406921,412.050415 773.799133,409.041779 778.558960,406.011200 
z"/>
<path fill="#0558DA" opacity="1.000000" stroke="none" 
	d="
M789.581909,397.010864 
	C786.859253,399.620392 783.779846,402.253876 780.350220,404.920715 
	C783.075012,402.314331 786.150085,399.674561 789.581909,397.010864 
z"/>
<path fill="#0558DA" opacity="1.000000" stroke="none" 
	d="
M728.530884,429.985168 
	C727.156433,430.611115 725.425903,431.225464 723.335388,431.882996 
	C723.775024,431.295319 724.574646,430.664490 725.705933,429.992737 
	C726.750000,429.959076 727.462463,429.966339 728.530884,429.985168 
z"/>
<path fill="#0558DA" opacity="1.000000" stroke="none" 
	d="
M732.760620,429.045410 
	C732.559448,429.294983 732.092773,429.575531 731.335327,429.785950 
	C731.528076,429.502655 732.011536,429.289520 732.760620,429.045410 
z"/>
<path fill="#0558DA" opacity="1.000000" stroke="none" 
	d="
M809.837769,375.182373 
	C809.848511,375.308533 809.657898,375.615143 809.252930,376.093842 
	C809.237732,375.964874 809.437012,375.663849 809.837769,375.182373 
z"/>
<path fill="#000000" opacity="1.000000" stroke="none" 
	d="
M645.412659,615.255493 
	C640.571777,604.119324 641.051147,592.993347 645.361023,582.554443 
	C647.398315,577.619995 652.344543,573.667786 656.526672,569.882507 
	C665.614258,561.657166 676.706177,562.914856 687.338867,565.100525 
	C695.851868,566.850464 702.075562,573.178528 705.780701,580.594177 
	C713.010681,595.064819 712.313110,609.535522 701.709290,622.437134 
	C696.393127,628.905212 689.269714,632.241882 680.687561,633.254089 
	C673.772217,634.069702 667.585938,632.900208 661.307190,630.405579 
	C654.047729,627.521362 649.038818,622.444519 645.412659,615.255493 
z"/>
<path fill="#000000" opacity="1.000000" stroke="none" 
	d="
M583.161011,606.075500 
	C585.706238,616.056335 581.542297,627.455078 573.705261,631.644531 
	C565.076660,636.257019 553.938354,635.391479 546.914062,627.639832 
	C539.574341,619.540161 538.181152,598.067688 551.741150,590.308655 
	C563.206726,583.747986 579.343079,590.098572 582.248535,602.803650 
	C582.469177,603.768555 582.812683,604.705322 583.161011,606.075500 
z"/>
<path fill="#000000" opacity="1.000000" stroke="none" 
	d="
M1028.445068,588.786194 
	C1035.009033,589.403992 1041.257935,588.604858 1046.237915,594.319397 
	C1053.624634,602.795593 1054.615112,626.861877 1038.668091,633.159485 
	C1025.552856,638.338745 1012.200378,630.959229 1009.552124,616.617371 
	C1008.042786,608.443604 1010.063049,601.737427 1014.173340,595.283386 
	C1017.305908,590.364624 1022.002563,587.919434 1028.445068,588.786194 
z"/>
<path fill="#000000" opacity="1.000000" stroke="none" 
	d="
M807.792969,166.366608 
	C812.263000,168.141159 816.689514,170.025192 820.837341,172.396637 
	C825.432495,175.023880 829.772949,178.096680 834.590820,181.014908 
	C837.666321,183.846695 840.293091,186.725372 843.106934,189.407806 
	C846.103027,192.264023 845.923157,199.658905 842.555420,201.997345 
	C835.125427,207.156433 827.662231,212.268631 820.168701,217.335037 
	C817.493591,219.143677 814.769348,220.844391 811.555603,218.070084 
	C810.780090,217.400574 809.350281,217.013718 808.330994,217.177734 
	C800.889465,218.375153 796.068359,214.210938 791.244507,209.150284 
	C787.804504,205.933792 785.789062,202.440155 786.822571,197.830017 
	C786.857971,197.671921 786.891968,197.458038 786.817200,197.338562 
	C781.328796,188.564606 786.971924,181.835266 790.913269,174.771713 
	C791.541443,173.645996 791.889465,172.363983 792.684692,170.950867 
	C797.877136,169.395355 802.751892,168.043198 807.792969,166.366608 
z"/>
<path fill="#000000" opacity="1.000000" stroke="none" 
	d="
M761.684387,142.854004 
	C765.142151,144.120071 768.208557,145.392303 771.636230,146.711700 
	C775.177124,148.048874 778.391663,149.261551 781.515503,150.674835 
	C782.484497,151.113251 783.770264,151.978851 783.951660,152.848892 
	C785.191284,158.793930 787.303467,164.900284 782.244263,170.631577 
	C782.119690,170.956390 781.877747,170.987427 781.661377,171.106323 
	C781.180420,171.377762 781.131226,171.582535 781.297424,171.839569 
	C779.938293,174.017532 778.579102,176.195480 776.792847,178.806763 
	C776.236084,179.821960 776.106445,180.403854 775.976807,180.985748 
	C775.976807,180.985748 776.000000,181.001221 775.708313,181.066727 
	C774.957825,181.736084 774.499023,182.339935 774.040222,182.943771 
	C772.942383,183.017609 771.844604,183.091446 769.990967,183.145508 
	C767.843262,183.734970 766.451355,184.344223 765.059509,184.953491 
	C764.877747,185.001465 764.695984,185.049454 763.997192,185.125336 
	C763.151184,185.324448 762.982483,185.595490 762.974243,185.966370 
	C762.808899,185.999680 762.643616,186.032974 762.237427,186.144348 
	C758.740479,185.875168 755.454041,185.696808 752.240051,185.116699 
	C750.344421,184.774551 748.563721,183.795776 746.278198,182.823914 
	C745.528564,182.468124 745.232056,182.391769 744.935547,182.315399 
	C744.524292,182.249100 744.113098,182.182800 743.390503,182.132202 
	C737.870972,180.811539 732.552368,179.789520 727.498840,178.013260 
	C724.756592,177.049362 722.430237,174.850662 719.995361,173.099045 
	C719.366394,172.646576 719.189331,171.486740 718.544189,171.148193 
	C712.201233,167.819855 712.501221,162.055237 712.838013,156.196426 
	C712.981201,153.706024 713.224792,151.133133 712.784119,148.714035 
	C711.485596,141.585419 714.690063,136.625717 720.690613,133.963623 
	C723.442993,132.742569 727.414246,133.303696 730.560669,134.113647 
	C740.872009,136.767975 751.058594,139.907303 761.684387,142.854004 
z"/>
<path fill="#0558DA" opacity="1.000000" stroke="none" 
	d="
M722.596069,432.062012 
	C721.248535,434.728485 720.167847,438.314240 717.756042,440.044891 
	C713.903198,442.809662 712.481689,445.824310 712.795166,450.391754 
	C713.134399,455.335480 713.162476,460.340912 712.795166,465.279938 
	C712.504822,469.184265 713.874939,471.641602 717.057373,473.728851 
	C719.094360,475.064819 720.903198,476.049622 723.681824,475.200623 
	C722.584045,476.154572 721.110291,477.036011 719.280762,477.924011 
	C711.735779,474.841797 710.174744,469.156036 710.907410,461.906433 
	C711.436584,456.669250 710.729370,451.313171 711.145508,446.055389 
	C711.299072,444.116394 712.827515,442.082123 714.191833,440.487396 
	C716.702148,437.553101 719.555359,434.912140 722.596069,432.062012 
z"/>
<path fill="#488BE8" opacity="1.000000" stroke="none" 
	d="
M807.491089,423.963379 
	C810.553955,420.392883 813.960144,416.798370 817.680054,413.079773 
	C816.822144,418.665466 812.342712,421.315765 807.491089,423.963379 
z"/>
<path fill="#488BE8" opacity="1.000000" stroke="none" 
	d="
M821.289917,409.879150 
	C821.464600,409.068390 821.942322,408.158447 822.729431,407.191833 
	C822.556885,408.016785 822.074951,408.898376 821.289917,409.879150 
z"/>
<path fill="#488BE8" opacity="1.000000" stroke="none" 
	d="
M804.193115,426.859619 
	C804.160034,426.702820 804.318054,426.409180 804.730469,426.060059 
	C804.825256,426.277924 804.625061,426.517334 804.193115,426.859619 
z"/>
<path fill="#488BE8" opacity="1.000000" stroke="none" 
	d="
M823.373413,406.964996 
	C823.236572,406.756439 823.375916,406.541016 823.826111,406.378296 
	C823.903992,406.573181 823.741455,406.748901 823.373413,406.964996 
z"/>
<path fill="#488BE8" opacity="1.000000" stroke="none" 
	d="
M820.184082,410.860809 
	C820.156250,410.712372 820.324646,410.428528 820.735168,410.066406 
	C820.825256,410.271851 820.626343,410.517639 820.184082,410.860809 
z"/>
<path fill="#488BE8" opacity="1.000000" stroke="none" 
	d="
M805.201111,425.872192 
	C805.175964,425.710724 805.345215,425.435638 805.763855,425.134491 
	C805.845459,425.361420 805.639526,425.578125 805.201111,425.872192 
z"/>
<path fill="#488BE8" opacity="1.000000" stroke="none" 
	d="
M803.208862,427.872498 
	C803.177673,427.720642 803.343933,427.436432 803.753784,427.077179 
	C803.850769,427.288483 803.653687,427.534485 803.208862,427.872498 
z"/>
<path fill="#488BE8" opacity="1.000000" stroke="none" 
	d="
M802.198608,428.853027 
	C802.169006,428.697144 802.333740,428.408966 802.751526,428.065918 
	C802.842163,428.283386 802.638306,428.519989 802.198608,428.853027 
z"/>
<path fill="#488BE8" opacity="1.000000" stroke="none" 
	d="
M801.176941,429.850006 
	C801.152222,429.700195 801.326843,429.423401 801.743286,429.076233 
	C801.829407,429.285004 801.626465,429.524048 801.176941,429.850006 
z"/>
<path fill="#488BE8" opacity="1.000000" stroke="none" 
	d="
M799.200928,431.858765 
	C799.171326,431.711182 799.339417,431.427521 799.747192,431.057343 
	C799.842468,431.261932 799.646423,431.512573 799.200928,431.858765 
z"/>
<path fill="#296EDA" opacity="1.000000" stroke="none" 
	d="
M765.421631,184.977966 
	C766.451355,184.344223 767.843262,183.734970 769.583984,183.218018 
	C768.549866,183.874374 767.166809,184.438400 765.421631,184.977966 
z"/>
<path fill="#296EDA" opacity="1.000000" stroke="none" 
	d="
M774.252197,183.099213 
	C774.499023,182.339935 774.957825,181.736084 775.699951,181.056610 
	C775.476929,181.738861 774.970520,182.496750 774.252197,183.099213 
z"/>
<path fill="#296EDA" opacity="1.000000" stroke="none" 
	d="
M776.186829,180.792694 
	C776.106445,180.403854 776.236084,179.821960 776.640564,179.119507 
	C776.742493,179.532486 776.569641,180.066055 776.186829,180.792694 
z"/>
<path fill="#367DE7" opacity="1.000000" stroke="none" 
	d="
M781.427917,171.778290 
	C781.131226,171.582535 781.180420,171.377762 781.619751,171.220978 
	C781.800293,171.423355 781.721558,171.590118 781.427917,171.778290 
z"/>
<path fill="#296EDA" opacity="1.000000" stroke="none" 
	d="
M763.168152,185.889160 
	C762.982483,185.595490 763.151184,185.324448 763.725098,185.199402 
	C763.803955,185.473694 763.601318,185.662476 763.168152,185.889160 
z"/>
<path fill="#5794EE" opacity="1.000000" stroke="none" 
	d="
M786.542114,438.257324 
	C787.255249,439.853363 787.917114,441.390808 787.813904,442.875122 
	C787.770447,443.501282 785.751343,444.694824 785.267578,444.436554 
	C784.307983,443.924347 783.014893,442.301086 783.253784,441.643860 
	C783.738831,440.309814 785.151367,439.313049 786.542114,438.257324 
z"/>
<path fill="#488BE8" opacity="1.000000" stroke="none" 
	d="
M757.124756,460.891754 
	C757.134155,460.739929 757.334412,460.463135 757.798584,460.213074 
	C757.828735,460.437012 757.579834,460.612640 757.124756,460.891754 
z"/>
<path fill="#065CDB" opacity="1.000000" stroke="none" 
	d="
M745.083191,182.467926 
	C745.232056,182.391769 745.528564,182.468124 745.897705,182.784866 
	C745.696228,182.940659 745.449768,182.805740 745.083191,182.467926 
z"/>
</svg>